<?xml version="1.0" encoding="UTF-8"?>
<!-- Generator: Adobe Illustrator 26.1.0, SVG Export Plug-In . SVG Version: 6.00 Build 0)  -->
<svg xmlns="http://www.w3.org/2000/svg" xmlns:xlink="http://www.w3.org/1999/xlink" version="1.1" id="Capa_1" x="0px" y="0px" viewBox="0 0 310.9 150" style="enable-background:new 0 0 310.9 150;" xml:space="preserve">
<style type="text/css">
	.st0{fill:#FDFDFD;}
	.st1{fill-rule:evenodd;clip-rule:evenodd;fill:#FDFDFD;}
</style>
<g>
	<g>
		<path class="st0" d="M145.1,96.7c-0.4-0.4-1-0.4-1.4,0c-2.6,2.4-4.9,3.9-8.5,3.9c-5.5,0-9.6-4.5-9.6-10.5c0-5.9,4.1-10.3,9.6-10.3    c3,0,5.5,1.1,8.3,3.7c0.2,0.2,0.5,0.3,0.7,0.3c0.3,0,0.5-0.1,0.7-0.3l3.6-4.2c0.4-0.4,0.3-1-0.1-1.4c-2.7-2.6-6.4-5.3-13.3-5.3    c-10,0-17.6,7.6-17.6,17.7c0,9.8,7.6,17.5,17.3,17.5c5.6,0,9.7-1.8,13.8-6c0.4-0.4,0.4-1,0-1.4L145.1,96.7z"></path>
		<path class="st0" d="M168.2,72.5c-10,0-17.8,7.7-17.8,17.7c0,10,7.6,17.5,17.8,17.5c10,0,17.8-7.7,17.8-17.7    C186,80.1,178.3,72.5,168.2,72.5z M168.2,100.5c-5.6,0-9.9-4.5-9.9-10.5c0-5.9,4.2-10.3,9.8-10.3c5.6,0,9.9,4.5,9.9,10.5    C178,96.1,173.8,100.5,168.2,100.5z"></path>
		<path class="st0" d="M204.2,86.6c-6.5-1.6-6.8-2.6-6.8-4.1c0-1.7,1.7-2.8,4.2-2.8c2.7,0,5.3,1,8.1,3.1c0.2,0.2,0.5,0.2,0.8,0.2    c0.3,0,0.5-0.2,0.7-0.4l3-4.3c0.3-0.4,0.2-1-0.2-1.4c-3.6-2.9-7.6-4.3-12.3-4.3c-6.9,0-12,4.3-12,10.4c0,6.5,4.2,8.8,11.5,10.6    c6,1.4,6.5,2.5,6.5,4c0,2.2-2.4,3-4.7,3c-3.5,0-6.3-1.2-9.5-3.9c-0.2-0.2-0.5-0.3-0.7-0.2c-0.3,0-0.5,0.2-0.7,0.4l-3.4,4    c-0.4,0.4-0.3,1.1,0.1,1.4c4,3.5,8.8,5.4,14.1,5.4c7.6,0,12.5-4.2,12.5-10.7C215.3,90.2,209.9,88,204.2,86.6z"></path>
		<path class="st0" d="M245.5,79.3v-5.2c0-0.6-0.5-1-1-1h-26c-0.6,0-1,0.5-1,1v5.2c0,0.6,0.5,1,1,1h9.2v25.8c0,0.6,0.5,1,1,1h5.7    c0.6,0,1-0.5,1-1V80.3h9.2C245.1,80.3,245.5,79.9,245.5,79.3z"></path>
		<path class="st0" d="M263.6,73.4c-0.2-0.4-0.5-0.6-0.9-0.6h-5.2c-0.4,0-0.8,0.2-0.9,0.6l-14.1,32.3c-0.1,0.3-0.1,0.7,0.1,1    c0.2,0.3,0.5,0.5,0.9,0.5h5.8c0.4,0,0.8-0.2,0.9-0.6l3-7.1h13.8l3,7.1c0.2,0.4,0.5,0.6,0.9,0.6h6c0.3,0,0.7-0.2,0.9-0.5    c0.2-0.3,0.2-0.7,0.1-1L263.6,73.4z M264,92.4h-8l4-9.2L264,92.4z"></path>
		<g>
			<path class="st0" d="M142,136.4c4.5-1.8,7.1-5.4,7.1-10.3c0-3-1-5.7-3-7.7c-2.3-2.3-5.8-3.5-10-3.5h-14.3c-0.6,0-1,0.5-1,1V148     c0,0.6,0.5,1,1,1h5.6c0.6,0,1-0.5,1-1v-10.2h5.5l7.6,10.8c0.2,0.3,0.5,0.4,0.8,0.4h6.7c0.4,0,0.7-0.2,0.9-0.6     c0.2-0.3,0.1-0.7-0.1-1.1L142,136.4z M128.5,122.1h7.2c2.6,0,5.6,0.7,5.6,4.4c0,2.7-2.1,4.3-5.6,4.3h-7.2V122.1z"></path>
			<path class="st0" d="M161.4,114.9h-5.6c-0.6,0-1,0.5-1,1V148c0,0.6,0.5,1,1,1h5.6c0.6,0,1-0.5,1-1V116     C162.4,115.4,161.9,114.9,161.4,114.9z"></path>
			<path class="st0" d="M195.2,138.5c-0.4-0.4-1-0.4-1.4,0c-2.6,2.4-4.9,3.9-8.5,3.9c-5.5,0-9.6-4.5-9.6-10.5     c0-5.9,4.1-10.3,9.6-10.3c3,0,5.5,1.1,8.3,3.7c0.2,0.2,0.5,0.3,0.7,0.3c0.3,0,0.5-0.1,0.7-0.4l3.6-4.2c0.4-0.4,0.3-1-0.1-1.4     c-2.7-2.6-6.4-5.3-13.3-5.3c-10,0-17.6,7.6-17.6,17.7c0,9.8,7.6,17.5,17.3,17.5c5.6,0,9.7-1.8,13.8-6c0.4-0.4,0.4-1,0-1.4     L195.2,138.5z"></path>
			<path class="st0" d="M235.7,147.6l-14.1-32.3c-0.2-0.4-0.5-0.6-0.9-0.6h-5.2c-0.4,0-0.8,0.2-0.9,0.6l-14.1,32.3     c-0.1,0.3-0.1,0.7,0.1,1c0.2,0.3,0.5,0.5,0.9,0.5h5.8c0.4,0,0.8-0.2,0.9-0.6l3-7.1h13.8l3,7.1c0.2,0.4,0.5,0.6,0.9,0.6h6     c0.3,0,0.7-0.2,0.9-0.5C235.8,148.3,235.8,148,235.7,147.6z M221.9,134.3h-8l4-9.2L221.9,134.3z"></path>
		</g>
	</g>
	<g>
		<g>
			<g>
				<path class="st0" d="M303.7,53.5c-0.5,0-1-0.1-1.5-0.3c-0.5-0.2-0.8-0.5-1.2-0.8c-0.3-0.3-0.6-0.7-0.8-1.2      c-0.2-0.4-0.3-0.9-0.3-1.5c0-0.5,0.1-1,0.3-1.5c0.2-0.4,0.5-0.8,0.8-1.2c0.3-0.3,0.7-0.6,1.2-0.8c0.4-0.2,0.9-0.3,1.4-0.3      c0.6,0,1.1,0.1,1.5,0.3c0.5,0.2,0.8,0.5,1.2,0.8c0.3,0.3,0.6,0.7,0.8,1.2c0.2,0.5,0.3,0.9,0.3,1.5c0,0.5-0.1,1-0.3,1.5      c-0.2,0.4-0.5,0.8-0.8,1.2c-0.3,0.3-0.7,0.6-1.2,0.8C304.8,53.4,304.3,53.5,303.7,53.5L303.7,53.5z M303.8,46.5      c-0.5,0-0.9,0.1-1.3,0.3c-0.4,0.2-0.8,0.4-1,0.7c-0.3,0.3-0.5,0.6-0.7,1c-0.2,0.4-0.3,0.8-0.3,1.3c0,0.5,0.1,0.9,0.2,1.3      c0.2,0.4,0.4,0.7,0.7,1c0.3,0.3,0.6,0.5,1,0.7c0.4,0.2,0.8,0.3,1.3,0.3c0,0,0,0,0,0c0.5,0,0.9-0.1,1.3-0.3      c0.4-0.2,0.8-0.4,1.1-0.7c0.3-0.3,0.5-0.6,0.7-1c0.2-0.4,0.3-0.8,0.3-1.3c0-0.5-0.1-0.9-0.2-1.3c-0.2-0.4-0.4-0.7-0.7-1      c-0.3-0.3-0.6-0.5-1-0.7C304.7,46.6,304.3,46.5,303.8,46.5L303.8,46.5L303.8,46.5z M304.9,51.6l-1.1-1.5l-0.9,0l0,1.4l-0.6,0      l0-3.9l1.7,0c0.2,0,0.5,0,0.7,0.1c0.2,0.1,0.4,0.2,0.5,0.3c0.1,0.1,0.2,0.2,0.2,0.3c0.1,0.1,0.1,0.3,0.1,0.4      c0,0.3-0.1,0.6-0.3,0.8c-0.2,0.2-0.4,0.3-0.7,0.4l1.2,1.6L304.9,51.6z M304,49.6c0.3,0,0.5-0.1,0.6-0.2c0.2-0.1,0.2-0.3,0.2-0.5      c0-0.2-0.1-0.4-0.2-0.5c-0.1-0.1-0.4-0.2-0.6-0.2l-1.1,0l0,1.3L304,49.6z"></path>
				<path class="st0" d="M303.8,46.1C303.8,46.1,303.8,46.1,303.8,46.1c0.6,0,1,0.1,1.5,0.3c0.4,0.2,0.8,0.5,1.2,0.8      c0.3,0.3,0.6,0.7,0.8,1.2c0.2,0.4,0.3,0.9,0.3,1.4v0c0,0.5-0.1,1-0.3,1.4c-0.2,0.4-0.5,0.8-0.8,1.2c-0.3,0.3-0.7,0.6-1.2,0.8      c-0.4,0.2-0.9,0.3-1.4,0.3c0,0,0,0,0,0c-0.5,0-1-0.1-1.5-0.3c-0.4-0.2-0.8-0.5-1.2-0.8c-0.3-0.3-0.6-0.7-0.8-1.2      c-0.2-0.4-0.3-0.9-0.3-1.4v0c0-0.5,0.1-1,0.3-1.4c0.2-0.4,0.5-0.8,0.8-1.2c0.3-0.3,0.7-0.6,1.2-0.8      C302.8,46.2,303.3,46.1,303.8,46.1 M303.8,53.1c0.5,0,0.9-0.1,1.3-0.3c0.4-0.2,0.8-0.4,1.1-0.7c0.3-0.3,0.5-0.7,0.7-1.1      c0.2-0.4,0.3-0.8,0.3-1.3v0c0-0.5-0.1-0.9-0.2-1.3c-0.2-0.4-0.4-0.8-0.7-1.1c-0.3-0.3-0.6-0.5-1-0.7c-0.4-0.2-0.8-0.3-1.3-0.3      c0,0,0,0,0,0c-0.5,0-0.9,0.1-1.3,0.3c-0.4,0.2-0.8,0.4-1.1,0.7c-0.3,0.3-0.5,0.6-0.7,1.1c-0.2,0.4-0.3,0.8-0.3,1.3v0      c0,0.5,0.1,0.9,0.2,1.3c0.2,0.4,0.4,0.8,0.7,1.1c0.3,0.3,0.6,0.5,1,0.7C302.8,53,303.3,53.1,303.8,53.1      C303.7,53.1,303.8,53.1,303.8,53.1 M302.3,47.8l1.7,0c0.2,0,0.5,0,0.7,0.1c0.2,0.1,0.4,0.2,0.5,0.3c0.1,0.1,0.2,0.2,0.2,0.3      c0.1,0.1,0.1,0.3,0.1,0.4v0c0,0.3-0.1,0.6-0.3,0.7c-0.2,0.2-0.4,0.3-0.7,0.4l1.2,1.5l-0.7,0l-1.1-1.4l0,0l-1,0l0,1.4l-0.6,0      L302.3,47.8 M304,49.6c0.3,0,0.5-0.1,0.6-0.2c0.2-0.1,0.3-0.3,0.3-0.5v0c0-0.2-0.1-0.4-0.2-0.5c-0.2-0.1-0.4-0.2-0.6-0.2l-1.1,0      l0,1.4L304,49.6C304,49.6,304,49.6,304,49.6 M303.8,46c-0.5,0-1,0.1-1.5,0.3c-0.5,0.2-0.9,0.5-1.2,0.8c-0.3,0.3-0.6,0.7-0.8,1.2      c-0.2,0.5-0.3,0.9-0.3,1.5c0,0.5,0.1,1,0.3,1.5c0.2,0.5,0.5,0.9,0.8,1.2c0.3,0.3,0.7,0.6,1.2,0.8c0.5,0.2,1,0.3,1.5,0.3h0      c0.5,0,1-0.1,1.5-0.3c0.5-0.2,0.9-0.5,1.2-0.8c0.3-0.3,0.6-0.7,0.8-1.2c0.2-0.5,0.3-0.9,0.3-1.5c0-0.5-0.1-1-0.3-1.5      c-0.2-0.5-0.5-0.9-0.8-1.2c-0.3-0.3-0.7-0.6-1.2-0.8C304.8,46.1,304.3,46,303.8,46L303.8,46L303.8,46z M303.8,53L303.8,53      c-0.5,0-0.9-0.1-1.3-0.3c-0.4-0.2-0.7-0.4-1-0.7c-0.3-0.3-0.5-0.6-0.7-1c-0.2-0.4-0.2-0.8-0.2-1.3c0-0.5,0.1-0.9,0.3-1.3      c0.2-0.4,0.4-0.7,0.7-1c0.3-0.3,0.6-0.5,1-0.7c0.4-0.2,0.8-0.2,1.3-0.2h0c0.5,0,0.9,0.1,1.3,0.3c0.4,0.2,0.7,0.4,1,0.7      c0.3,0.3,0.5,0.6,0.7,1c0.2,0.4,0.2,0.8,0.2,1.3c0,0.5-0.1,0.9-0.3,1.3c-0.2,0.4-0.4,0.7-0.7,1c-0.3,0.3-0.6,0.5-1,0.7      C304.6,52.9,304.2,53,303.8,53L303.8,53z M302.3,47.7L302.3,47.7l0,3.9l0,0.1h0.1l0.6,0h0.1l0-0.1l0-1.3l0.8,0l1.1,1.4l0,0h0      l0.7,0h0.2l-0.1-0.1l-1.1-1.4c0.2-0.1,0.5-0.2,0.6-0.4c0.2-0.2,0.3-0.5,0.3-0.8c0-0.2,0-0.3-0.1-0.5c-0.1-0.1-0.1-0.2-0.2-0.3      c-0.1-0.1-0.3-0.2-0.5-0.3c-0.2-0.1-0.4-0.1-0.7-0.1L302.3,47.7L302.3,47.7L302.3,47.7z M303,49.5l0-1.2l1,0      c0.3,0,0.5,0.1,0.6,0.2c0.1,0.1,0.2,0.2,0.2,0.4c0,0.2-0.1,0.3-0.2,0.4c-0.2,0.1-0.3,0.2-0.6,0.2v0.1l0-0.1L303,49.5L303,49.5z"></path>
			</g>
		</g>
		<g>
			<path class="st1" d="M165.7,57.2c0-0.1-0.6-0.7-0.6-0.7c-0.3-0.1-0.4-0.4-0.4-0.4c0,0-0.4-0.2-0.6-0.3c-0.3-0.1,0.4,0,0.3-0.1     c-0.8-0.5-1.6-2.3-2.1-4.9c0.1,0.1-0.3-3.6-0.3-3.9c-0.2-1.7,0.1-3.3,0.2-4.6c0.2-0.8,0.2-2.4,0.3-2.9c0.1-1,0.3-0.8,0.5-2.9     c0.1-0.2,0.1-0.5,0.2-0.7c0-0.6-0.1-0.7-0.2-1c0.1-0.2-0.6-0.7-0.9-1.1c-0.2-0.3-2.9-0.4-2.9-0.4c-0.2,0.1-0.4,0-0.5,0     c-0.4,0.1-0.6,0.2-0.6,0.2c-0.4,0.2-0.7,0.3-1.1,0.5c-0.2,0.2-1.2,1.2-1.4,1.4c-1.5,1.8,0.4-0.1-0.2,0.7     c-0.5,0.5-1.4,1.5-2.3,2.6c-0.4,0.5-0.3,0.6-0.7,1.1c-0.3,0.4-0.6,1-0.9,1.3c-1,1.1-2.2,1.9-2.3,2c-0.6,1.1-0.7,0.8-1.4,2.1     c-0.3,0.4-0.6,0.6-0.9,1c-0.1,0.3-1,1.1-1.8,2.3c-0.1,0.1-0.2,0.4-0.3,0.4c-0.1,0-0.2,0.2-0.3,0.2c0-0.3,0,0,0.1-0.3     c0-0.9,0.4-1.6,0.3-1.6c0-0.2-0.1-0.7-0.1-0.8c0.6-1.4,0.1-1.4,0.5-2.8c-0.2,0.4,0.2-0.9,0.2-0.9c0.2-0.7,0.5-1.4,0.5-2.1     c0,0,0.5-1.2,0.5-2.8c-0.1-0.8-0.4-0.4-0.4-0.4c0,0,0,0,0,0c0,0,0,0,0,0c0,0,0,0,0,0c0,0-0.4-0.7-2-0.4c-0.5,0.1-1.2-0.2-2,0.2     c-0.4,0.1-0.5,0.1-1,0.4c-0.2,0.1-0.7,0.8-0.9,0.9c-0.1,0.1-0.2,0.2-0.3,0.3c-0.1,0.1-0.2,0.3-0.4,0.4c-0.1,0.2-0.4,0.8-0.5,1     c-0.3,0.4-0.6,0.7-0.8,1.1c-0.6,0.8-0.7,0.7-1.3,1.4c-0.2,0.2-0.4,0.7-0.4,0.7c-0.1,0.3-0.3,0.5-0.4,0.7     c-0.5,0.6-0.8,0.9-1.3,1.3c-0.2,0.7-2.7,2.1-2.8,2.8c0.1-0.5-2.4,2.4-3.2,2.7c0,0-4.3,3.2-6.6,3.6c-2.6,1-4.4,0.1-5-0.2     c-0.4-0.5-0.7-0.5-0.9-0.7c0.1,0-0.3-0.4-0.3-0.3c-1.8-1.6-0.9-3.4-0.4-4.6c0-0.2,0-0.3,0.1-0.4c0.4-0.1,0.9-0.3,1.9-0.6     c0.3-0.1,0.8,0,1.2-0.1c0.2,0,0.4-0.1,0.9-0.2c0.6-0.2,1.7-0.7,1.9-0.8c0.3-0.1,0.5,0,0.8-0.1c0.7-0.2,1.3-0.6,1.3-0.6     c0.6-0.2,1.3-0.5,1.9-0.8c0.4-0.2,0.3-0.3,0.7-0.5c0.4-0.2,1.1-0.5,1.5-0.7c0.2-0.1,0.5-0.4,0.7-0.5c0.3-0.1,0.3,0,0.5-0.2     c0.2-0.1,0.8-0.4,1-0.5c0.8-0.6,1.2-1.2,2-1.9c0.9-1.1,1.7-2,2.5-3.4c0.4-0.7,0.8-1.5,1-2.7c0.1-0.7,0.2-1.6-1.1-3     c-1.1-1-2.8-1.1-3.4-1c-4.9,0.8-6.1,2.1-8.3,3.1c-1.9,1.2-3.7,2.5-6,5c-2.2,2.3-4.3,5.1-5.4,8.4c-0.1,1.6-1,4.4,0.2,6.5     c0,0.3,0,0.6,0.1,0.9c0.5,0.7,1.2,1.5,1.9,2.2c0,0-0.1,0-0.1,0c1.2,0.9,2.9,1.6,3.7,1.6c0,0-0.1,0-0.1,0.1     c0.6,0.2,1.2,0.2,1.8,0.3c-0.1,0-0.2,0.1-0.3,0.1c2.6,0,4.7-0.5,6.4-1c0.2-0.1,0.4-0.2,0.6-0.3c3.8-1,3.4-2.2,6.2-3.6     c0,0,0.4-0.3,0.4-0.3c1.6-2.1,3.1-2.5,4.7-4.1c0,0,0.1,0,0.1,0c0,0,0.6-0.4,1.1-1.1c0.2-0.3,0.4-0.7,0.7-1c0,0,0,0,0,0     c0.2-0.3,0.6-0.7,0.9-1.1c0.1-0.1,0.2-0.6,0.3-0.6c0.5-0.9,0.8-1.2,0.9-1.3c0.1,0.5,0.1,1.2-0.2,2.1c-0.1,0.9,0.1,1.6-0.1,2.4     c0.1,0.3-0.2,1.8-0.1,2.1c0.1,0.3-0.1,0.6,0,0.9c0.1,0.2,0.3,0.6,0.4,0.8c0.2,0.2,0.2,0.3,0.4,0.5c0.2,0.1,0.2,0.3,0.4,0.4     c0.2,0.1,0.4,0.4,0.6,0.4c0.2,0,0.5,0.3,0.8,0.3c0,0,0.6,0.1,0.7,0.1c0.2,0,0.4,0,0.6,0c0,0.1,0.1,0,0.4-0.1c0.1,0,0.1,0,0.2,0     c0,0.1,0.2-0.1,0.7-0.2c0.1-0.1,0.4-0.2,0.5-0.3c0,0,0.4-0.3,0.5-0.4c0-0.2,0.2-0.1,0.3-0.3c0.1-0.2,0.2-0.2,0.4-0.4     c0.1-0.1,0.4-0.3,0.5-0.4c0.2-0.1,0.8-1,0.9-1.2c0.3-0.6,1.8-1.6,2-2.2c0.4-0.5,3.4-4.4,3.8-4.8c0.8-0.8,1.2-1.2,1.6-1.9     c1-1,0.9-0.8,1.6-1.7c0.1-0.1,0.5-1.2,0.6-1.3c0.1-0.2,0,0.5,0.2,0.3c-0.7,2.3-0.6,2.6-0.6,5.2c0,0,0.3,1.7,0,2.2     c0,0,0.1,1.5,0.1,1.6c0,1.1,0,0.7,0.7,3.3c0.5,2.1,1.2,4.1,3.6,6.3c0.5,0.5,1.1,1,2.4,1.1c0.7,0.1,1.1-0.2,1.1-0.2     c0.1,0-0.2,0-0.2-0.1c0.2-0.2,0.3,0,0.4-0.2c0,0,0-0.3,0.1-0.3c0.1-0.1,0.3-0.2,0.4-0.2c0,0-0.1-0.3-0.1-0.3     c0.1-0.1,0,0.1,0.1,0.1C166.2,57.5,165.7,57.2,165.7,57.2z M118.5,42c1.2-1.2,3.5-3.2,3.5-3.2c1-1.1,0.9-1.1,3.1-2     c0.2-0.1,0.4-0.3,0.7-0.4c0.2-0.1,0.4-0.2,0.6-0.3c-0.1-0.1,0.3-0.1,0.6-0.3c0.4,0.1,0.3-0.2,1.3-0.7c0.8-0.2,1.7-1,2.6-0.8     c0.2,0.1,0.7,0.6,0.1,1.9c-0.5,0.8-1,1.7-1.9,2.5c-0.5,0.5-1,1-1.5,1.4c-0.4,0.5-1.5,0.7-2.5,1.3c-0.8,0.5-1.9,0.8-2.7,1.1     c-1,0.5-1.6,0.6-2.1,0.8c-0.3,0.3-1.4,0.5-1.8,0.7C118.3,43.1,117.2,43.3,118.5,42z"></path>
			<g>
				<path class="st1" d="M184,53.7c1.3-0.5,6.5-4.8,7.3-5.7c0.4-0.3,0.3-0.2,0.7-0.5c0.1-0.1,0.4-0.6,0.4-0.6l1-1      c0.1-0.1-0.1-0.1,0.3-0.5l0-0.4c0.2-0.1,0.3-0.3,0.5-0.4c-0.1,0.3-0.2,0.7-0.2,1c0,0.3-0.1,0.6-0.1,0.8c0.1,0.4-0.1,1.1-0.1,1.1      c0,0,0,2.4,0.4,3.1c0,0.3,0.4,1,0.4,1c0.2,0.3,0.3,1.5,0.3,1.5c0,0.1,0.6,1.5,0.9,1.8c0.4,0.5,0.6,1,0.9,1.5      c0.3,0.3,0.5,0.5,0.8,0.8c0.2,0.1,0.5,0.3,0.7,0.3c0.3,0.1,1-0.2,1.2-0.1c0.2-0.1,0.4-0.3,0.6-0.4c0.1-0.2,0.2-0.4,0.4-0.6      c0,0-0.6-2-0.8-2.2c-0.2-0.4-0.4-0.7-0.7-1.1c-0.1-0.3-0.2-0.6-0.3-0.9c-0.1-0.4-0.2-0.7-0.3-1.1c-0.1-0.5-0.2-1-0.3-1.5      c0-0.1-0.3-1-0.1-2c0-0.3,0-0.6,0-0.9c0-1.5,0.3-4.2,0.7-5.9c0.2-0.3,0.2-0.7,0.4-0.9c-0.1,0.2-0.1,0.1-0.1,0      c0.3-0.9-0.1,0,0.2-0.9c0.1-0.5,0-0.4,0.5-1.6c0.1-0.4,0.4-1.1,0.4-1.1c0.1-0.1,0.1-0.1,0.2-0.7c-0.1-0.6-2.5-0.9-3.4-0.2      c-0.1,0.1-0.3,0.2-0.4,0.3c-0.2,0.2-0.5,0.4-0.7,0.6c-0.2,0.4-0.3,0.5-0.3,0.6c-0.1,0.2-0.2,0.4-0.3,0.7c-0.6,0.8,0,0.7-0.3,1.1      c-0.4,0.6-0.7,1.2-1.1,1.8c0,0.1-0.1,0.2-0.2,0.3l-1.2,1.4c-0.2,0.2-2,1.9-2.3,2c0.1,0-1.1,0.9-1.2,1.1c-0.4,0.3-1.2,1-1.5,1.2      l-2.7,2.1c-1,0.7-1.1,0.9-2.3,1.6l-1.1,0.7c-1.3,1-2.9,1.4-4.2,1.4c-0.8-0.1-1.4-0.4-1.8-1c-0.2-0.2-0.6-1-0.7-1.1      c-0.3-0.7-0.2,0.1-0.4-0.8c-0.9-0.8,1.6-6.4,2.7-7.3c0.3-0.7,1-1.4,1.4-2l0,0.1c0.4-0.7,3.8-3.8,4.4-4.2l-0.1,0.1      c0.5-0.5,0.6-0.3,1.1-0.6c-0.1-0.1,0.4-0.5,0.6-0.7l0,0c0.3-0.2,1-0.8,1.6-1l0,0.1c0.4-0.3,0.9-0.7,1.1-0.7      c0.1,0,0.3-0.1,0.5-0.1c0,0,0,0.1,0,0.3c0.4,0,0,0.4,0,0.4c-0.3,0.4-0.3,1.2-0.3,1.2s0.3,0.4,0.4,0.7c0.2,0.3,0.8,0.6,1.1,0.4      c0.2,0.1,0.5,0.1,0.6,0c0,0,0.6,0,0.7,0c0.4-0.2,1-1.4,1-1.4c0.3-0.5,0.1-0.7,0.1-0.6c0,0,0.3-0.1,0.4-0.6      c0.1-0.8-0.2-0.1-0.1-1.2c0.3-0.7-1.1-2.2-1.6-2.5c-0.9-0.5-1.5-0.5-2-0.5c-0.2,0-0.4,0-0.6,0c-1,0.1-1.7,0.3-2.4,0.5      c-1.4,0.5-2.6,1.1-3.8,1.9c-0.1,0-1.3,0.9-1.9,1.4c-0.2,0.1-0.3,0.1-0.3,0.1c0.1-0.1-3,2.9-3,3l0.1,0.2c-0.5,0.6-0.3,0-0.8,0.6      c0,0.4-0.9,1-1.2,1.4c-0.1,0.2-0.2,0.3-0.3,0.5c0,0.1,0.1,0,0.1,0l-0.3,0.4c-0.2,0.1-0.2,0.1-0.1-0.1c-1,0.8-4.3,7.2-3.9,9.7      c-0.1,0.4,0.2,1,0.1,1.5l0.1,0.1l0,0.3c0.8,2.2,0.1,0.5,1,2.5c0.8,0.9,1.3,1.2,1.7,1.5c-0.1,0-0.2-0.2,0-0.1      c0,0.1,0.6,0.3,0.7,0.5c0.2,0.2,1,0.6,0.8,0.3c0.1,0.1,0.9,0.4,0.4,0.3c0.3,0.1,0.5,0.2,0.7,0.2c0,0,0.9,0.2,1.5,0.2      c0.2,0,0.4,0.1,0.5,0.1c0.4,0,0.7,0,1,0c0,0,1.3-0.2,1.3-0.2C181.2,55.5,184,53.7,184,53.7z"></path>
				<path class="st1" d="M204.1,31.8c0-0.7,0.4-0.8,0.4-1.3c0-0.6-1-0.6-1-1.4c-0.4-0.1-0.5-0.5-0.7-0.7c-0.2-0.1-0.6,0-0.6-0.3      c-0.5,0-0.7-0.2-1.1-0.2c-1-0.1-2.6,0.1-3.2,1c0,0.3-0.1,0.4,0.1,0.5c-0.2,0.1-0.3,0.3-0.3,0.6c0.1,0.3,0.3,0.3,0.1,0.8      c0.5,0.3,0.2,1.3,1.1,1.3c0,0.2-0.1,0.2,0,0.3c0.2,0.1,0.4,0,0.7,0c0.7,1,2.5-0.2,3.7,0.2C203.5,32.3,203.7,31.9,204.1,31.8z"></path>
			</g>
			<path class="st1" d="M108,32.5c0.4,0.4,2.2-0.9,2.6-1.1c0.9-1.4,0.9-0.9,1.8-3.7c0.1-0.4-0.3-0.9-0.2-1.4     c-0.4-0.2-0.4-0.9-1.1-0.8c-0.2-0.6-1.1,0.1-1.6-0.2c-0.3,0.3-0.9,0.3-1,0.4c-0.6,0.3-1.2,0.7-1.7,1.3c-0.1,0.1-0.1,0.3-0.2,0.4     c0,0-0.2,0-0.2,0c0,0-0.1,0.2-0.1,0.2c-0.3,0.4-0.9,0.9-1.3,1.3c-0.2,0.2-0.3,0.3-0.5,0.5c-0.2,0.3-0.3,0.5-0.5,0.8     c-0.2,0.3-0.5,0.6-0.7,0.9c-0.3,0.5-0.6,1-0.9,1.3c-0.2,0.2-0.1,0.4-0.2,0.6c-0.1,0.3-0.4,0.5-0.6,0.7c-0.1,0.1,0,0.2,0,0.4     c0,0.1-0.2,0.2-0.3,0.3c-0.5,1.1-0.8,2.2-1.3,3.2c0.2,0-0.1,0.4-0.2,0.8c-0.1,0.4,0,0.6-0.2,0.7c0.3,0.2-0.3,0.8-0.1,1.2     c0,0,0,0.1,0,0.1c-0.6,0.7-1.4,1.6-1.7,2.2c-2.5,2-5.1,4-7.9,5.7c-1.5,0.7-2.7,1.5-4.2,2.2c-0.8,0.4-1.6,0.8-2.5,1.1c0,0,0,0,0,0     h0c-0.2,0.1-0.4,0.1-0.5,0.2c-0.3,0.1-0.5,0.1-0.7,0.2c-0.2,0.1-0.4,0.1-0.6,0.2c-3,0.9-7.7,2.4-11.2,2.1c-0.4-0.2-1-0.4-1.5-0.6     c0-0.1-0.1-0.1,0-0.3c-0.5,0.1-0.9-0.8-1-1.3c-0.3-1.5,1.3-4.1,2-4.4c1.3,0.1,1.9-0.8,2.9-0.8c1-0.4,2.1-0.8,3.3-1.2     c0.2-0.1,0.2-0.2,0.5-0.1c2-0.7,3.7-1.5,5.2-2c0-0.1,4.8-2.2,5.4-2.6c2.2-0.8,4-2.1,5.9-2.9c0,0,0.2-0.3,0.2-0.1     c-0.6,0.7,0.8-0.1,1.9-1.3c0.6-0.6,1.4-1.5,1.4-2.1c0.1-0.4-0.3-0.8,0-1.2c-0.3-0.2-0.3-0.6-0.4-0.9c-1-0.9-1.7-1.9-2.9-2.4     c-0.4-0.2-1.2-0.4-1.8-0.4c-0.3,0-0.7,0.2-1,0.2c-4.8,0.1-7.8,1.6-11.2,3.4c-0.2,0.2-0.1,0.3-0.2,0.4c-0.9,0.1-1.8,0.9-2.6,1.4     c-1.8,1-3.2,2.3-4.8,3.4c-1.9,1.9-3.9,3.6-5.4,6c-0.3,0.2-0.7,0.4-1.1,0.6c0.2,0,0.3,0,0.2,0.2c-0.6-0.2-2.6,0.6-3.7,0.7     c-0.5,0.7-1.9,0.3-2.3,0.8c-0.8,0.1-6,1.5-6.4,1.6c-0.4,0.1-9.7,2.3-10,2.3c-0.5,0.4-5.7,1.2-5.7,1.2c-1.3,0.2-3.8,0.9-3.8,0.7     c-0.3,0-6,0.6-8.5,1.4c-0.2-0.4-0.6,0.1-1,0.1c-0.2-0.3-3.1,0.1-2.7,0.3c-0.4-0.3-0.2,0.4-0.6,0.1c0-0.1,0.2-0.1,0.2-0.2     c-0.4,0-0.7,0.2-0.9,0.4c0-0.1,0.1-0.1,0.2-0.2c-5.3,0.5-12,0.6-15.8-2.2c-0.2,0-0.2,0.1-0.4,0.1C3.4,52.2,3.3,52,3.1,52     c-0.6,1,0.2,1.6,0.5,2.2c-0.2,0-0.2-0.1-0.4,0C3.1,54.9,4,55,3.7,55.4c2.9,1.8,6.7,3,10.6,2.7c0,0.1,0,0.2,0,0.3     c1.1-0.1,3.1-0.3,3.1-0.2c0.9,0.2,2.3,0.1,3.5-0.3c0.1,0.3,1.8-0.4,2.5-0.3c-0.1,0.1-0.2,0.3,0.1,0.2c0.7-0.2,2.9-0.4,3-0.3     c0.2,0.2,2.8-0.1,2.3-0.3c0.5-0.1,0.8,0,1.1-0.3c-0.2,0,2.5-0.6,2.3-0.3c0.3,0,0.6-0.1,0.9-0.2c0.1-0.2,4.7-0.7,4.9-0.5     c-0.2-0.4,1.1-0.5,0.6-0.2c0.4-0.1,3.3-0.5,3.3-0.7c0.5-0.1,3.5-0.5,3.6-0.5c0.2-0.1,2.9-1,2.9-1c1.3-0.5,4.5-1.1,4.8-1l1.9-0.3     c-0.3,0,4.1-1.4,4-1c0.3,0,0.6-0.2,0.8-0.3c0-0.2,3-1,2.9-0.7c0.3,0,0.5-0.2,0.8-0.2C63.5,51,63.5,52.4,64,53     c0,0.1-0.2,0.1-0.2,0.3c0.6,1.5,1.7,3.2,3,4.3c2.4,1.5,6.5,1.2,9.5,0.8c2.7-0.6,5.2-1.4,7.5-2.4c0,0,0,0,0,0h0     c1.1-0.4,2.2-1,3.3-1.3c1.4-1,3-1.8,4.6-2.6c1.6-1.4,4.9-3.6,6.3-5.2c0.4-0.2,0.8-0.5,1.1-0.9l0,0.4c0.1,0.9,0.3,1.7,0.5,2.4     c-0.1,0.4,0.1,0.7,0.2,0.7c-0.1,0.1-0.1,0.2-0.1,0.4c0.4,1.6,1.1,2.9,1.5,4.4c0.1,0.1,0.2,0.2,0.3,0.3c-0.1,0.2,0.1,0.2,0,0.5     c0.2,0.3,0.4,0.7,0.5,0.9c0.1,0.2,0,0.4,0.1,0.6c0.2,0.6,0.6,1.2,0.8,1.8c0.3,0.9,0.4,1.9,0.6,2.9c0,0.3,0.2,0.5,0.2,0.8     c0,0.5-0.3,0.9-0.3,1.5c0,0.1,0.1,0.2,0,0.4c-0.1,0.4-0.5,0.9-0.6,1.2c0,0.1,0,0.3,0,0.3c-0.3,0.6-1.3,1.7-1.8,2.1     c-0.5,0.5-1,0.8-1.4,1.3c-1,0.6-1.9,1.3-3.1,1.7c-0.5,0.2-1,0.4-1.5,0.6c-0.5,0.1-1,0-1.5,0.1c-0.2,0-0.3,0.2-0.5,0.2     c-0.5,0-1.1-0.3-1.5,0.2c-0.2-0.4-0.8-0.1-1.3-0.2c0-0.1,0-0.1,0-0.2c-0.4,0.1-0.4-0.2-0.7-0.1c-0.2,0.6,0.3,0.5,0.3,1     c0.2,0,0.3,0.1,0.5,0.2c-0.2,0.5,0.7,0.3,0.4,0.7c0.7,0,0.8,0.2,1.3,0.1c0,0.3,0.1,0.4,0.3,0.5c0.3-0.1,0.7,0,1.3,0.1     c-0.3,0.3,0.1,0.1,0.2,0.3c-0.3,0.1-0.8,0-1.1,0.2c0.1,0.3,0.9,0.3,1.7,0.3c0.2,0,0.4-0.2,0.6-0.2c0.3,0,0.4,0.2,0.6,0.2     c0.7,0,1.3-0.5,1.8-0.5c0.1,0.2-0.3,0.1-0.3,0.2c0.3,0,0.4-0.1,0.7-0.1c0.1-0.2,0.9-0.5,0.8-0.3c0.3,0.1,0.8,0,1.4-0.1     c0.7,0,1.4-0.6,1.9-1c0.4-0.2,0.5-0.3,0.9-0.6c0.2-0.1,0.4-0.2,0.5-0.4c1.1-0.8,2-1.6,2.8-2.6c0.1-0.6,0.5-1,0.8-1.4     c0-0.2,0-0.3,0.1-0.5c0.4-0.2,0.2-0.5,0.3-0.7c0.1-0.1,0.2-0.2,0.3-0.3c0,0-0.1-0.2,0-0.3c0.2-0.8,0.7-2.1,0.8-3     c0.1-1.1-0.3-2.1-0.4-3c0,0,0.1-0.2,0.1-0.2c0-0.1-0.2-0.2-0.2-0.3c-0.1-0.8-0.4-1.5-0.7-2c-0.2-0.5-0.3-0.9-0.5-1.3     c-0.1-0.3-0.2-0.6-0.3-1c-0.1-0.3-0.4-0.5-0.5-0.8c0-0.1,0.1-0.2,0-0.3c-0.2-0.5-0.6-1-0.8-1.6c-0.1-0.4-0.2-0.8-0.4-1.1     c-0.5-1-0.6-2-0.8-3c-0.4-0.7-0.5-1.6-0.6-2.5c-0.1-0.8-0.1-1.7,0-2.6c0.1-0.9,0.2-2.1,0.4-3c0.6-2.2,1.7-4,2.5-5.8     c0.1-0.2,0.4-0.4,0.5-0.8c0-0.2,0.3-0.8,0.5-1C108.2,31.6,107.4,32.9,108,32.5z M73.9,41.4c1.2-1.3,5.2-4.1,5.3-4l0.6-0.6     c0.3-0.1,1.5-0.5,1.8-0.6c1.3-0.6,2.5-1.4,4-1.6c0.6-0.4,1.4-0.7,2-0.6c1-0.6,2.2-0.2,3.4,0c-3.1,2.6-6.8,4.3-10.4,6.1     c-0.5,0.2-4.2,1.7-5.7,2.1C73.9,42.3,73.1,41.9,73.9,41.4z"></path>
			<path class="st0" d="M298.2,55c0,0.1,0,0.2,0.1,0.4c-0.2-0.1-0.3,0.1-0.5,0.1c0-0.2,0.3-0.2,0.2-0.5c-0.1-0.1-0.4,0-0.4-0.1     c0.3-0.2,0.2-0.1,0.5-0.1c0-0.1,0.2-0.1,0.1-0.3c-0.3-0.1-0.8,0.4-1.2,0.2c0.2-0.1,0.1-0.2,0.2-0.3c-0.5-0.1-1,0.2-1.3,0.5     c-0.3-0.2-0.8,0-1.1,0.3c0.2-0.1,0.2,0.2,0.5,0.1c0.1-0.1,0.2-0.2,0.3-0.3c0.1,0.2,0.3,0.1,0.4,0.2c-0.4,0.1-0.8,0.3-1.3,0.3     c0-0.1,0.1-0.1,0-0.2c-0.4,0.1-0.5,0.1-0.9,0.1c0.1,0,0.2,0,0.2-0.1c-0.4,0-0.3,0.1-0.4,0.2c-0.6-0.1-1,0.3-1.4,0.6     c0-0.1,0.1-0.2,0.1-0.3c-0.4,0.1-0.9,0.2-1.2,0.5c-0.1-0.1-0.3,0-0.3-0.2c-2.2,0.8-4.8,0.8-6.7,1.6c-0.6-0.1-1.5,0-2.1,0.3     c-1.5-0.2-2.8,0.3-4.1,0.5c-0.2,0-0.5,0.1-0.7-0.2c-0.7,0.3-1.3,0-2.1,0.2c-1.5-0.1-3.1,0-4.5,0c-0.9,0-1.8-0.2-2.7-0.3     c-0.8-0.1-1.5,0-2.1-0.1c-0.2,0-0.4-0.2-0.7-0.3c-0.1,0-0.4,0.1-0.5,0c-0.8-0.3-1.9-0.4-2.7-0.5c-0.6-0.4-1.6-0.3-2.1-0.8     c-1-0.2-1.9-0.5-2.6-1c-1.7-0.7-3.2-1.6-4.6-2.8c-0.2,0-0.2-0.1-0.4-0.1c-0.1-0.4-0.4-0.5-0.8-0.5c0.2-0.2-0.2-0.2-0.1-0.5     c-0.7-0.2-1-1-1.6-1.4c-0.6-1.1-1.9-2.1-2.5-3.5c-0.2,0-0.3-0.1-0.3-0.2c-0.6-1.5-1.7-2.4-2-4.2c-0.1,0-0.2,0-0.2-0.1     c0.1-0.6-0.6-1.2-0.5-1.8c0-0.1-0.2,0-0.2-0.1c0-0.8-0.5-0.9-0.4-1.8c0.3,0.1,0.2-0.5,0.2-0.7c0.2,0,0.1,0.2,0.2,0     c0.1-0.3,0.1-0.5,0.4-0.8c-0.2-0.4,0.6-0.7,0.5-1.2c0.6-0.2,0.2-1.1,0.9-1.2c0-0.1-0.1-0.1-0.1-0.3c0.1-0.1,0.2-0.1,0.3-0.1     c0.1-0.7,0.9-0.9,0.6-1.6c0.8-0.3,0.3-1.5,1.1-1.6c0.1-0.4,0.1-0.9,0.4-1.1c0-0.2-0.2-0.2-0.1-0.5c0.1-0.1,0.1-0.3,0.3-0.4     c-0.1-0.8,1.1-2.1,1-3c0.2-0.3,0.6-1.4,0.6-1.5c0.6-1,0.5-1.7,0.6-2c-0.1,0,0.3-0.3,0.3-0.4c0-0.3,0.2-0.5,0.2-0.8l0.2-0.5     l0.1-0.6l0.5-1.8c0,0-0.1,0-0.1,0c0-0.2,0.1-0.4,0.2-0.7l0-0.1l-0.1-0.1L252,16c0.1-1.3,0.5-1.6,0.4-3.1c0-0.3,0.1-1.1,0.1-1.4     c0-0.4-0.2-2-0.2-2.4c0-0.8-0.2-1.1-0.2-1.2c-0.2-1-0.2-0.3-0.6-1.3c-0.1-0.2-0.1-0.4-0.2-0.7c0-0.2-0.3-0.2-0.4-0.4     c0.1-0.3-0.2-0.4-0.3-0.7c-0.2-0.6-0.4-0.9-0.8-1.1c0-0.1-0.7-0.9-0.7-1c-0.6-0.4-0.6-0.3-1.3-0.7c0-0.1,0-0.1,0-0.2     c-1-0.2-1.8-0.6-3.1-0.3c-0.1,0.2-0.2,0.4-0.4,0.5c-0.1,0-0.1-0.2-0.3-0.1c-0.7,0.2-1,0.6-1.6,0.8c-1,1.2-1.5,2.7-2.3,4.1     c0.2,0-0.2,0.3,0,0.5c-0.5,0.5-0.4,1.4-0.8,1.9c0,0.1,0.1,0.2,0.1,0.2c-0.3,0.8-0.5,1.8-0.7,2.6c-0.2,1-0.4,2.1-0.5,3     c0,1-0.3,1.7-0.3,2.6c0,0.6,0,0.9-0.1,1.3c0.2,0.3,0,0.6,0,0.8c-0.1,1.7-0.1,3.4-0.1,5.1c0,0.1-0.1,0.1-0.1,0.2     c0.1,1,0.2,2,0,3.3c0.3,0.4,0.1,1,0.1,1.5c0,0.6,0.2,1.1,0.2,1.6c0,0-0.1,0.1-0.1,0.3c0,1.7,0.5,3.6,0.6,5.6     c-0.6,0.8-0.6,1.8-1.4,2.3c-0.2,0.7-0.9,1.1-1.3,1.7c-0.6,0.3-0.7,1.3-1.3,1.6l0,0c0,0,0,0,0,0c0,0,0,0-0.1,0l0,0     c-0.8,0.6-3,3.2-3.5,2.8c-0.3,0.1-1.2,0.9-2.1-0.7c-0.1,0-1.3-2.6-1.5-3.2c-0.1-1.5-0.3-2.8-0.4-4.3c0-0.4-0.2-0.7-0.3-1     c0.3-1,0.3-1.1,0.5-2.8c0,0,0.2-0.4,0.1-0.8l0.1-0.6c0,0,0.1-1.3,0-1.3l-0.7-0.2c0,0-0.9,0-1.3,0.1c-0.5,0.1-0.3,0-0.7,0.1     l-1.1,0.1c0,0-0.3,0.2-1,0.2l-0.7,0.8l-1.3,0.2l-2.6,1l-3.9,2.5l-2.1,1.3c-0.6,0.9-1.8,1.5-1.8,1.5l-1.5,1.4     c0.5-0.4-1.4,1.9-2.4,2.9c-0.5,1.3-3.3,6.3-2.7,6.5c-0.7,3.3-1.1,3.5,2.1,6.6c2.2,2.1,5.7,0.4,7.1,0c0.4-0.3,0.8-0.6,1.1-0.9     c3.1-1.2,3.7-2,6.3-5.1l0,0.3l0.6-1.5c1.5-1.6,1.2-2.6,2.9-4.5c0.1-0.1,0.1-0.2,0.2-0.3c0,0,0,0,0,0.1c0.3,0.6,0.8,1.9,0.9,2.6     c0.5,1.3,2.6,3.7,3.1,4.1c1.5,1,3.3,0.4,3.9,0.2c1.4-0.5,3.6-3.6,3.9-3.7l-0.1-0.2c0.1-0.1,0.3-0.3,0.4-0.5     c1-0.8,1.8-2.5,2.1-2.5c0.3-0.3,0.5-0.6,0.9-0.6c-0.1-0.2,0.4-0.8,0.7-0.9c0,0,0.3,0.4,0.5,0.1c0.5,0.7,0.7,1.6,1,2.5     c1.4,2.1,2.4,4.5,4.1,6.2c0.5,1.1,1.1,1.1,1.5,2.1c0.4-0.1,0.4,0.5,0.8,0.6c0.1,0.6,1,0.8,1.5,1.3c-0.1,0.2,0,0.1,0,0.3     c0.3-0.1,0.2,0.3,0.5,0.1c0,0.1-0.1,0.1,0,0.2c0.2,0,0.4,0.1,0.6,0.2c1.5,1.5,3.5,2.5,5.5,3.3c-0.1,0-0.2,0-0.1,0.1     c1.1,0.5,2.2,1,3.4,1.4c0.1-0.3-0.5-0.2-0.3-0.3c0.3,0.1,0.6,0.1,0.8,0.4c0.2-0.3,0.1,0.1,0.2,0c1.5,0,2.8,0.9,4.5,0.8     c0.1,0.3,0.7,0.1,0.5,0.5c0.4-0.3,1.1,0.2,1.3-0.3c0.4,0.3,0.5,0.1,1,0c0.1,0.3,0.4,0.3,0.6,0.4c0-0.2,0.3-0.1,0.4-0.1     c0.6,0.3,1.6,0,2,0.3c-0.4,0-0.7,0-1,0.3c0.3,0.1,0.9-0.1,1.2,0.1c0.2-0.2-0.2-0.4,0.1-0.5c0.1,0.4,0.1-0.1,0.3-0.1     c0.1,0.1,0.2,0.1,0.3,0.3c-0.2,0-0.4,0.1-0.5,0.1c0.4,0.3,1.2,0.1,1.7,0.1c0.1-0.2-0.3-0.2,0-0.3c0.5,0.1,1,0,1.3-0.2     c0.3,0.2,0.7,0,0.9,0.2c0.4-0.3,1.2-0.1,1.8-0.1c-0.1-0.2,0.2-0.2,0.3-0.3c0.3,0.3,1.1,0.1,1.5,0c0.7,0.1,1.8,0.1,2.5-0.3     c0-0.3,0.1-0.2-0.1-0.4c-0.3,0.1-0.1,0.2-0.3,0.1c-0.1,0.1,0,0.3-0.1,0.3c-0.3,0.1-0.7,0.1-1.2,0.1c0-0.1,0.1-0.1,0-0.2     c-0.7,0.3-1,0-1.7,0.5c0.3-0.6-0.4-0.1-0.5-0.5c0.1,0,0.2,0,0.3,0c-0.1-0.4-0.5-0.2-0.5,0.1c0.1,0,0.2,0,0.1,0.1     c-0.2,0.1-0.4-0.1-0.3-0.4c0.3-0.1,0.6-0.1,1-0.2c-0.1-0.3,0.3-0.4,0.3-0.7c0.1,0.4,0.7,0.2,1,0.1c0,0.5-0.8,0.2-0.9,0.4     c0.2,0,0.1,0.3,0.3,0.2c0-0.1,0.5-0.2,0.5-0.1c-0.1,0.2-0.4,0.1-0.4,0.4c0.3-0.1,0.5-0.4,0.7-0.1c0.1-0.2,0-0.4,0.2-0.5     c0.4,0,1.2,0.2,1.5-0.3c-0.1,0.3,0.3,0,0.3,0.2c-0.2,0.2-0.3,0.5-0.4,0.4c0,0.3,0.3,0.1,0.5,0.1c-0.1-0.5,0.2-0.7,0.4-0.6     c0.1,0,0,0.2,0.1,0.2c0,0-0.1-0.4,0-0.3c0.1,0.3,0.5,0.2,0.7,0c0,0.1,0,0.3,0.1,0.3c0-0.1,0-0.1,0.1-0.1c0,0,0,0,0.1,0     c0,0,0,0,0,0c0.2-0.1-0.2-0.1,0-0.1c0.3,0.2,0.8-0.1,1.2-0.2c0-0.1-0.1-0.3,0-0.3c0.3,0,0.5-0.1,0.5,0c0,0.2-0.5,0.1-0.3,0.4     c0,0,0,0,0,0c0.3-0.3,0.8-0.5,1.2-0.4c0,0.1-0.2,0.1-0.1,0.3c0.1,0,0.2,0,0.3-0.1c0,0,0,0,0,0c0-0.2-0.1-0.1,0-0.3     c1.3,0.2,2.8-0.4,4.4-0.8c0-0.1,0-0.2,0.1-0.2c0-0.1,0.2-0.1,0.2-0.2c0.2,0,0.1,0.2-0.1,0.3c0.1,0.1,0.3,0.1,0.6,0     c0-0.2,0.1-0.3,0.2-0.4c0.1-0.1,0.3-0.2,0.3-0.4c0.1,0,0.2,0.1,0.2,0.1c0,0,0,0,0,0c0.1,0.1,0.2,0.1,0.3,0.3     c-0.1,0-0.1,0.1-0.1,0.1c-0.2,0.1-0.2-0.1-0.2-0.1c0,0-0.1,0.1-0.1,0.1c0.2,0.3,0.2,0.5,0.2,0.7c0.1-0.1,0.3-0.2,0.5-0.3     c0-0.2-0.1-0.1-0.2-0.2c0.8-0.3,1.7-0.8,2.4-1c0,0.1,0,0.1,0,0.2c0.5,0,0.7-0.3,0.8-0.5c0.2,0.3,0.6-0.1,0.9,0.1     c0.1-0.2,0.1-0.4,0.3-0.4c0,0.1-0.1,0.1,0,0.1c0.3-0.3,0.4,0,0.9-0.2c-0.1-0.3,0.3-0.4,0-0.5c-0.5,0.1,0.1,0.4-0.3,0.4     c-0.1-0.2-0.3-0.2-0.6,0c0-0.3-0.1-0.2-0.3-0.3c-0.1,0.2,0.2,0.3-0.2,0.3c-0.1-0.1,0-0.2-0.1-0.4c-0.1,0.1-0.1,0.1-0.2,0.1     c-0.3,0.3-0.6,0.3-0.9,0.5c0-0.2-0.1-0.2-0.2-0.3c0,0-0.1,0-0.1,0.1c0,0.1,0.2,0.1-0.1,0.2c0,0,0-0.1,0-0.1     c-0.1,0.1-0.2,0.1-0.2,0c-0.1,0.1-0.2,0.2-0.2,0.2c0-0.1,0.2,0.2-0.1,0.2c0-0.1-0.1-0.1-0.3-0.3c0,0,0,0,0,0c0,0,0-0.1,0-0.1     c-0.2,0.1,0.2,0.3-0.2,0.3c0-0.1,0-0.2-0.1-0.2c0,0,0,0,0,0c0.1,0.2-0.4,0.3-0.4,0.2c-0.1-0.1,0-0.2,0-0.3c-0.1,0-0.2,0.1-0.4,0     c0,0,0,0,0.1-0.1c-0.1,0-0.1,0-0.2-0.2c-0.1,0.4-0.6,0.3-1,0.3c0.1,0.2-0.3,0.4-0.4,0.2c0.3-0.1,0.3-0.1,0.1-0.3     c0.3-0.4,1.1-0.2,1.1-0.5c0.2-0.1,0.1,0.2,0.3,0.1c0.2-0.2,0.7-0.4,1-0.4c0.1-0.2,0.7-0.1,0.7-0.5c0.2,0,0.2-0.2,0.5-0.2     c-0.1,0.1-0.2,0.3,0,0.3c0.1-0.2,0.1-0.4,0.4-0.5c0.2,0.1-0.1,0.2,0.2,0.3c0.2-0.2,0.1-0.2,0.2-0.4c0.2,0.2,0.3-0.1,0.4,0.1     c0-0.2,0.1-0.4,0.3-0.4c0.2,0.2-0.1,0.1,0,0.5c0.6-0.1,1-0.8,1.4-0.6c0.1-0.2-0.1-0.3,0.3-0.4c0.2,0,0.2,0.3,0.4,0.3     c0.2-0.2,0.5,0,0.8-0.2C298.4,55.3,298.4,54.9,298.2,55z M221.6,39.8c-0.7,1.4-0.6,3-1.8,3.5l-0.1,0.6c-0.2,1.1-1.1,1.7-1.8,2.4     l0.2,0.3c-0.2,0.6-1.1,1.6-1.6,1.8c-1.2,0.9-2.4,2.4-4.1,3.5c-1.8,0-1.3,0.8-3.5,0.6c-1.4-0.6-1.5-3-0.7-3.6     c1.2-2.7,1.7-4.1,2.5-4.9c1.6-2.4,5.1-4.2,6.1-5.6c1.3-1.3,3.5-2,5-2.7L221.6,39.8z M242.4,31.6c-0.5-3.9-0.1-6.8-0.3-10.4     c0.1,0,0.1-0.1,0.2-0.1c-0.2-2.4,0.3-4.5,0.4-6.8c0.7-0.6-0.2-2.7,0.7-2.9c-0.1-0.5,0.5-1.3,0.1-1.3c0.2-1.1,0.5-2,1.1-2.8     c0-0.1,0-0.2-0.1-0.4c0.5-0.6,1.6-1.4,2.4-1.7c0.2,0.1-0.3,1,0.1,0.8c0.4,0.4,0.5,1.1,1,1.5l0.1,0.7c0.4,0.4,0.1,1.7,0.5,1.8     c0-0.1-0.1,1,0,1c-0.1,2.1,0.3,1.6,0,3.5c0,0.2,0.3,0.2,0,1.3c-0.1,0-0.1,0.6-0.2,0.6c-0.1-0.1,0.1,0.5-0.2,0.4     c-0.2,0.2,0,0.6-0.1,0.9c0,0.1,0.1,0,0.2,0c0,0.1,0,0.2-0.1,0.2c-0.1,0.1-0.2,0.1-0.3,0.3c0,0.1,0.1-0.1,0.2,0     c-0.2,0.3-0.2,0.5-0.1,0.8c0,0.1,0,0.2-0.1,0.2c-0.1,0.1-0.3,0.1-0.5,0.3c0,0.2,0.1,0.6-0.3,0.7c0.2,0.2,0,0.6,0.2,0.7     c-0.2,0-0.3,0.1-0.3,0.3c0.2,0.2-0.3,1-0.7,1.2c0.3,0.2,0,0.8,0.4,0.8c-0.2,0.1-0.3,0.3-0.5,0.1c-0.3,0.6-0.6,1.3-0.9,2     c0.2-0.1,0.2,0.1,0.2,0.3c-0.2,0.1-0.4,0.2-0.5,0.4c0.1,0.3-0.2,0.7-0.3,1c0,0.1-0.3,0.9-0.5,0.9c-0.2,0.6-0.6,1.1-0.9,1.7     c-0.3,0-0.3,0.4-0.3,0.6C242.7,30.5,243,31.4,242.4,31.6z M275.4,61.9c0-0.1,0.1-0.1,0.2-0.1c0,0,0,0.1,0,0.1     C275.6,61.9,275.5,61.9,275.4,61.9z M275.7,61.9c0-0.1,0.1-0.1,0.1-0.1C275.8,61.8,275.7,61.9,275.7,61.9z M275.9,61.5     c0.1-0.2,0.3-0.5,0.7-0.5c0,0-0.1,0,0-0.1c0.1,0.1,0.3,0,0.3,0.2C276.7,61,276.5,61.4,275.9,61.5z M280.1,60.6     c0.3-0.1,0.2,0.2,0.4,0.2C280.5,61,280.1,60.9,280.1,60.6z M281.7,60.9c0-0.2,0.2-0.2,0.3-0.1C281.9,60.9,281.8,60.9,281.7,60.9z      M282,60.8c-0.1-0.2,0.1-0.2,0.2-0.2C282.2,60.7,282.2,60.8,282,60.8z M282.7,60c-0.1-0.2,0.2-0.2,0.4-0.2     C283,60,282.8,60,282.7,60z M283.6,60.3c0-0.2,0.2-0.2,0.3-0.1C283.9,60.2,283.7,60.2,283.6,60.3z M284,59.7     c0.1-0.1,0.4-0.3,0.6-0.2C284.4,59.7,284.2,59.7,284,59.7z M284.7,59.9c-0.1-0.2,0.6-0.4,0.6-0.1     C285.1,59.7,284.9,59.8,284.7,59.9z M285.7,59.2c0.2,0,0.5-0.1,0.5,0.1C285.9,59.4,285.7,59.4,285.7,59.2z M286.6,60.1     c-0.3-0.2-0.5,0.1-0.8,0.1c0.2-0.4,0.6-0.2,1-0.6c0,0.1,0.1,0.1,0.1,0.3C286.8,59.9,286.5,59.9,286.6,60.1z M287.5,58.8     c-0.3,0.1-0.3-0.1-0.3-0.2c0.1,0,0.2,0.1,0.4,0C287.5,58.6,287.5,58.7,287.5,58.8z M287.6,59.6c0-0.1,0.1-0.1,0.1-0.2     c0.1,0,0.1,0,0.1,0C287.8,59.6,287.7,59.6,287.6,59.6z M288.2,58.6c-0.1,0-0.1,0-0.2,0c0-0.3-0.1,0-0.2-0.1     c0-0.2,0.3-0.1,0.4-0.2C288.3,58.4,288.2,58.5,288.2,58.6z M289.2,59.4c-0.1,0-0.1-0.1-0.2-0.1c0-0.1,0.2-0.1,0.3-0.1     C289.2,59.2,289.1,59.3,289.2,59.4z M289.3,59c-0.2,0,0-0.3,0-0.3c0.1,0,0.1,0.1,0.2,0.1C289.4,58.9,289.3,58.9,289.3,59z      M289.4,58.7c0-0.3,0.5-0.4,0.6-0.2C289.9,58.7,289.5,58.8,289.4,58.7z M291.3,58.3c0,0,0,0.1,0,0.1c-0.1,0-0.1,0-0.2,0     c0-0.1,0-0.1,0-0.1C291.2,58.3,291.2,58.3,291.3,58.3z M290.4,58.3c0,0.1,0,0.2,0,0.3C290.2,58.6,290.1,58.3,290.4,58.3z"></path>
		</g>
	</g>
</g>
</svg>
