<svg clip-rule="evenodd" fill-rule="evenodd" stroke-linejoin="round" stroke-miterlimit="2" viewBox="0 0 560 400" xmlns="http://www.w3.org/2000/svg"><g transform="matrix(2.42778 0 0 2.39992 25.4479 170.002)"><g fill="#102331"><path d="m178.671 24.578c.045.046.069.108.069.172 0 .137-.112.249-.249.25h-5.482c-.069 0-.135-.028-.182-.079l-7.287-7.707-7.368 7.709c-.046.049-.111.077-.18.077h-5.483c-.137-.001-.249-.113-.249-.25 0-.064.024-.126.069-.172l10.045-10.527-9.705-10.228c-.045-.047-.069-.109-.069-.173 0-.137.113-.25.25-.25h5.484c.068 0 .135.029.182.079l6.97 7.41 6.998-7.41c.047-.05.113-.079.182-.079h5.484c.137 0 .25.113.25.25 0 .064-.024.126-.069.173l-9.705 10.228 10.045 10.525zm-51.976.422c-.191 0-.348-.157-.348-.347v-20.905c0-.192.157-.347.348-.347h20.714c.191 0 .346.155.346.347v2.99c0 .189-.156.346-.346.346h-16.038v4.814h9.615c.191 0 .348.156.348.347v2.99c-.001.19-.158.346-.348.346h-9.615v5.359h16.246c.192 0 .348.155.348.346v3.367c0 .19-.157.347-.348.347zm-36.677 0c-.191-.001-.347-.157-.347-.347v-20.905c0-.192.155-.347.347-.347h4.328c.193 0 .348.155.348.347v20.905c0 .19-.157.347-.348.347zm-24.627 0c-.19-.001-.346-.157-.346-.347v-20.905c0-.192.155-.347.346-.347h20.463c.191 0 .346.155.346.347v3.073c-.001.19-.157.346-.346.347h-15.786v5.693h8.736c.191 0 .347.155.347.347v3.241c0 .19-.157.346-.347.346h-8.736v7.858c0 .19-.157.347-.348.347zm-13.432-17.749v17.402c0 .19-.156.346-.347.347h-4.328c-.191 0-.348-.157-.348-.347v-17.401h-9.226c-.191 0-.347-.156-.347-.347v-3.157c0-.192.155-.347.347-.347h23.518c.191 0 .346.155.346.347v3.157c-.001.19-.157.346-.346.346zm-22.743 17.749c-.19-.001-.346-.157-.346-.347v-20.905c0-.192.155-.347.346-.347h4.329c.193 0 .348.155.348.347v20.905c0 .19-.157.347-.348.347z" fill-rule="nonzero"/><path d="m1.875 3.748c0-.192.155-.347.348-.347h18.497c2.474.001 4.51 2.037 4.51 4.512v1.442c0 2.475-2.036 4.511-4.511 4.511h.169c2.474 0 4.511 2.036 4.512 4.51v2.113c0 2.475-2.036 4.511-4.511 4.511h-18.666c-.191 0-.348-.157-.348-.347zm4.936 3.17h11.691c1.151 0 2.083.932 2.083 2.082v.984c0 1.15-.932 2.081-2.083 2.081h-11.691v-5.148zm0 8.703h11.816c1.151 0 2.083.933 2.083 2.083v1.321c0 1.15-.932 2.081-2.083 2.081h-11.814v-5.485z"/><path d="m98.164 24.653v-20.905c0-.192.155-.347.347-.347h2.954c.085 0 .166.03.23.088l16.663 14.747v-14.487c0-.193.155-.348.346-.348h3.827c.192 0 .347.155.347.347v20.905c0 .19-.157.346-.347.347h-2.953c-.085 0-.167-.031-.23-.087l-16.663-14.788v14.528c0 .19-.157.347-.348.347h-3.824c-.191 0-.348-.157-.348-.347z" fill-rule="nonzero"/></g><path d="m182.846 16.302c-.219-3.539 1.269-7.475 4.33-10.536 6.658-6.657 20.523-5.725 20.601-5.719-.037.055-10.173 14.751-22.185 16.126-.927.106-1.844.148-2.746.129z" fill="#03ca9b" fill-rule="nonzero"/><path d="m184.253 20.828c.343.547.748 1.058 1.217 1.527 4.11 4.11 11.537 3.346 16.589-1.705 6.677-6.677 5.718-20.602 5.718-20.602-.036.082-7.302 16.368-18.85 19.921-1.567.482-3.138.762-4.675.859z" fill="#03ca9b" fill-rule="nonzero"/></g></svg>