<?xml version="1.0" encoding="utf-8"?>
<!-- Generator: Adobe Illustrator 24.3.0, SVG Export Plug-In . SVG Version: 6.00 Build 0)  -->
<svg version="1.1" id="Layer_1" xmlns="http://www.w3.org/2000/svg" xmlns:xlink="http://www.w3.org/1999/xlink" x="0px" y="0px"
	 viewBox="0 0 512 512" style="enable-background:new 0 0 512 512;" xml:space="preserve">
<style type="text/css">
	.st0{fill:#ED1C24;}
	.st1{fill:#FFF200;}
	.st2{fill:#FFFFFF;}
	.st3{fill:#0095DA;}
	.st4{fill:#F7941D;}
	.st5{fill:#F58220;}
</style>
<g id="XMLID_1_">
	<path id="XMLID_2_" class="st0" d="M310.28,243.09L310.28,243.09c1.82,0,3.37,1.54,3.37,3.37v28.06c0,1.82-1.54,3.37-3.37,3.37
		c-1.82,0-3.37-1.54-3.37-3.37v-28.06C306.92,244.63,308.6,243.09,310.28,243.09z"/>
	<path id="XMLID_3_" class="st0" d="M354.76,244.07c1.82,0.42,3.09,1.4,2.81,3.23c-0.42,1.82-2.1,3.09-3.93,2.81
		c-6.88-1.26-12.91-1.68-17.68-0.7c-4.35,0.84-7.58,2.67-9.54,6.31c-0.98,1.82-1.68,3.23-1.82,4.77c-0.14,1.26-0.42,3.09,0.56,4.63
		l0.56-0.42c0.56,0.84,0.84,2.1,1.82,2.95c1.12,0.84,2.25,1.54,3.65,2.1c7.3,3.51,18.52,4.63,26.94,1.26
		c1.82-0.7,3.79,0.28,4.35,1.96c0.7,1.82,0.14,3.09-1.68,3.79c-10.1,3.79-23.15,2.81-31.99-1.4c-1.82-0.84-3.51-1.82-4.91-2.95
		c-1.54-1.26-2.81-2.53-3.79-3.93c-2.1-2.95-2.81-5.61-2.53-8.56c0.28-2.67,1.26-5.19,2.67-7.86c3.51-5.19,8.14-7.16,14.31-8.28
		C340.59,242.67,347.19,242.95,354.76,244.07z"/>
	<path id="XMLID_4_" class="st0" d="M341.99,258.39h-20.91v4.91h20.91c1.4,0,2.53-1.12,2.53-2.53
		C344.52,259.51,343.4,258.39,341.99,258.39z"/>
	<path id="XMLID_5_" class="st0" d="M373.71,253.33v21.19c0,1.82-1.54,3.37-3.37,3.37c-1.82,0-3.09-1.54-3.09-3.37v-19.08
		c-0.98-8.14,7.16-17.26,16.42-8.7c0.14,0.14,0.28,0.28,0.42,0.42c0.14,0.14,0.14,0.14,0.14,0.28c4.91,6.45,8.56,13.61,13.19,20.49
		v0.14c0.28,0.42,0.42,0.84,0.7,1.26c2.67,3.93,6.45,3.93,6.59-1.12c0.14-4.35,0.14-16.28-0.28-21.33
		c-0.14-1.82,1.54-3.37,3.37-3.37c1.82,0,2.95,1.54,2.95,3.37v17.68c0.42,5.61-1.26,10.1-2.67,11.51c-1.82,2.1-4.21,2.67-6.74,2.67
		c-0.42,0-0.98,0-1.26-0.14c-5.19-1.12-15.29-19.22-17.12-21.75c-0.7-0.98-1.26-1.96-2.1-2.95c-0.42-0.7-1.12-1.54-1.82-2.39
		C376.09,248.98,373.71,251.09,373.71,253.33z M397.28,267.93c0.28,0.42,0.42,0.98,0.42,1.54L397.28,267.93z"/>
	<path id="XMLID_8_" class="st0" d="M256.96,245.34c-0.7-1.68-2.81-2.53-4.49-1.82c-1.68,0.7-2.53,2.81-1.82,4.49
		c3.37,8,8.7,16.28,14.31,22.73c3.79,4.35,7.3,7.44,10.8,8c3.79,0.42,6.88-1.82,11.51-5.75c4.07-3.65,6.59-7.58,9.26-12.21
		c2.67-4.49,4.77-8.84,6.31-12.35c0.7-1.68,0-3.79-1.68-4.49c-1.68-0.7-3.79,0-4.49,1.68c-1.4,3.37-3.65,7.44-6.03,11.65
		c-2.1,3.37-9.54,15.29-14.31,14.73C270.29,271.15,260.05,252.63,256.96,245.34z"/>
	<path id="XMLID_9_" class="st0" d="M243.91,243.09L243.91,243.09c1.82,0,3.37,1.54,3.37,3.37v28.06c0,1.82-1.54,3.37-3.37,3.37
		c-1.82,0-3.37-1.54-3.37-3.37v-28.06C240.55,244.63,242.09,243.09,243.91,243.09z"/>
	<path id="XMLID_10_" class="st0" d="M100.37,251.09c-1.82,0.42-3.79-0.42-4.21-2.1c-0.42-1.82,0.42-3.79,2.25-4.21
		c15.72-2.95,25.12-0.7,32.83,2.95c3.09,2.1,6.31,4.35,7.72,7.02c1.54,2.95,2.25,5.47,1.96,8.42c-0.42,4.63-3.09,8.98-8.14,11.79
		c-2.39,1.4-5.05,2.39-7.86,2.95c-2.67,0.56-5.19,0.84-7.72,0.98c-2.67,0.14-4.77,0.28-7.02,0c-2.25-0.28-4.63-0.98-7.16-2.1
		c-0.98-0.42-2.1-1.4-2.39-2.39l-0.14,0.28c0-6.45,0-12.91,0-19.22c1.26-3.37,5.75-2.25,5.89,0l0.42,15.72
		c-0.7,3.23,8.14,2.1,9.82,1.96c2.25-0.14,4.63-0.42,6.74-0.84c2.1-0.42,3.93-1.12,5.75-2.1c2.95-1.68,4.49-4.91,4.77-7.3
		c0.14-1.54-0.28-3.37-1.26-4.91c-0.98-1.82-2.53-3.51-4.77-4.77C122.4,249.41,113.98,247.44,100.37,251.09z"/>
	<path id="XMLID_11_" class="st0" d="M190.88,245.34c-0.7-1.68-2.81-2.53-4.49-1.82c-1.68,0.7-2.53,2.81-1.82,4.49
		c3.37,8,8.7,16.28,14.31,22.73c3.79,4.35,7.3,7.44,10.8,8c3.79,0.42,6.88-1.82,11.51-5.75c4.07-3.65,6.59-7.58,9.26-12.21
		c2.67-4.49,4.77-8.84,6.31-12.35c0.7-1.68,0-3.79-1.68-4.49c-1.68-0.7-3.79,0-4.49,1.68c-1.4,3.37-3.65,7.44-6.03,11.65
		c-2.1,3.37-9.54,15.29-14.31,14.73C204.21,271.15,193.96,252.63,190.88,245.34z"/>
	<path id="XMLID_12_" class="st0" d="M186.24,276.49c0.7,1.68,2.81,2.53,4.49,1.82s2.53-2.81,1.82-4.49
		c-3.37-8-8.7-16.28-14.31-22.73c-3.79-4.35-7.3-7.44-10.8-8c-3.79-0.42-6.88,1.82-11.51,5.75c-4.07,3.65-6.59,7.58-9.26,12.21
		c-2.67,4.49-4.77,8.84-6.31,12.35c-0.7,1.68,0,3.79,1.68,4.49c1.68,0.7,3.79,0,4.49-1.68c1.4-3.37,3.65-7.44,6.03-11.65
		c2.1-3.37,9.54-15.29,14.31-14.73C172.77,250.81,183.02,269.19,186.24,276.49z"/>
	<path id="XMLID_13_" class="st0" d="M419.87,251.09c-1.82,0.42-3.79-0.42-4.21-2.1c-0.42-1.82,0.42-3.79,2.25-4.21
		c15.72-2.95,25.12-0.7,32.83,2.95c3.09,2.1,6.31,4.35,7.72,7.02c1.54,2.95,2.25,5.47,1.96,8.42c-0.42,4.63-3.09,8.98-8.14,11.79
		c-2.39,1.4-5.05,2.39-7.86,2.95c-2.67,0.56-5.19,0.84-7.72,0.98c-2.67,0.14-4.77,0.28-7.02,0c-2.25-0.28-4.63-0.98-7.16-2.1
		c-0.98-0.42-2.1-1.4-2.39-2.39l-0.14,0.28c0-6.45,0-12.91,0-19.22c1.26-3.37,5.75-2.25,5.89,0l0.42,15.72
		c-0.7,3.23,8.14,2.1,9.82,1.96c2.25-0.14,4.63-0.42,6.74-0.84c2.1-0.42,3.93-1.12,5.75-2.1c2.95-1.68,4.49-4.91,4.77-7.3
		c0.14-1.54-0.28-3.37-1.26-4.91c-0.98-1.82-2.53-3.51-4.77-4.77C442.04,249.41,433.48,247.44,419.87,251.09z"/>
	<path id="XMLID_14_" class="st0" d="M465.89,276.49c-0.7,1.68-2.81,2.53-4.49,1.82s-2.53-2.81-1.82-4.49
		c3.37-8,8.7-16.28,14.31-22.73c3.79-4.35,7.3-7.44,10.8-8c3.79-0.42,6.88,1.82,11.51,5.75c4.07,3.65,6.59,7.58,9.26,12.21
		c2.67,4.49,4.77,8.84,6.31,12.35c0.7,1.68,0,3.79-1.68,4.49c-1.68,0.7-3.79,0-4.49-1.68c-1.4-3.37-3.65-7.44-6.03-11.65
		c-2.1-3.37-9.54-15.29-14.31-14.73C479.22,250.81,468.98,269.19,465.89,276.49z"/>
	<path id="XMLID_15_" class="st0" d="M65.15,250.39c-0.14,1.4-0.56,8.14,4.77,14.73c10.1,12.21-3.65,25.26-19.22,22.03
		c0,0-6.31,1.26-13.19,1.26s-13.19-1.26-13.19-1.26c-15.57,3.09-29.61-9.82-19.5-22.03c5.47-6.59,5.05-13.33,4.77-14.73H65.15z"/>
	<path id="XMLID_16_" d="M65.15,250.39h-0.28c0,0.28,0,0.84,0,1.54c0,2.81,0.56,8.14,4.91,13.33c2.39,2.81,3.37,5.75,3.37,8.42
		c0,3.79-1.96,7.16-5.19,9.68s-7.58,4.07-12.49,4.07c-1.54,0-3.09-0.14-4.77-0.56l0,0l0,0c0,0-0.42,0.14-1.12,0.14
		c-2.1,0.28-6.88,0.98-12.07,0.98c-3.37,0-6.74-0.28-9.12-0.56c-1.26-0.14-2.25-0.28-2.95-0.42c-0.7-0.14-1.12-0.14-1.12-0.14l0,0
		l0,0c-1.54,0.28-3.09,0.42-4.63,0.42c-4.91,0-9.4-1.54-12.63-4.07s-5.33-5.89-5.33-9.68c0-2.67,0.98-5.47,3.37-8.28l0,0
		c4.21-5.19,5.05-10.52,5.05-13.19c0-0.84,0-1.4-0.14-1.68H9.73v0.28h55.42V250.39h-0.28H65.15v-0.28H9.45v0.28
		c0,0.28,0.14,0.84,0.14,1.54c0,2.67-0.7,7.86-4.91,12.91l0,0c-2.39,2.95-3.51,5.89-3.51,8.7c0,3.93,2.1,7.58,5.47,10.1
		c3.37,2.53,8,4.21,13.05,4.21c1.54,0,3.09-0.14,4.77-0.42v-0.28v0.28c0,0,6.31,1.26,13.19,1.26s13.19-1.26,13.19-1.26v-0.28v0.28
		c1.68,0.28,3.23,0.56,4.91,0.56c4.91,0,9.4-1.54,12.77-4.21c3.23-2.53,5.33-6.17,5.33-10.1c0-2.81-1.12-5.89-3.51-8.84
		c-4.21-5.05-4.77-10.38-4.77-13.05c0-0.7,0-1.26,0-1.54v-0.28h-0.42V250.39z"/>
	<path id="XMLID_17_" class="st0" d="M49.58,284.76c0,0,0.84-2.39,2.67-3.79c0.84-0.7,2.39-0.42,1.68,0.98
		c-0.28,0.42-2.39,1.82-3.79,3.51C49.86,285.75,49.58,284.76,49.58,284.76z M28.39,283.22L28.39,283.22c0,0-0.42-2.53-1.82-4.21
		c-0.7-0.84-2.25-0.84-1.82,0.56c0.14,0.42,1.96,2.25,2.95,4.21C27.97,284.06,28.39,283.22,28.39,283.22z M25.58,284.76
		L25.58,284.76c0,0-0.84-2.39-2.67-3.79c-0.84-0.7-2.39-0.42-1.68,0.98c0.28,0.42,2.39,1.82,3.79,3.51
		C25.44,285.75,25.58,284.76,25.58,284.76z M46.77,283.22L46.77,283.22c0,0,0.42-2.53,1.82-4.21c0.7-0.84,2.25-0.84,1.82,0.56
		c-0.14,0.42-1.96,2.25-2.95,4.21C47.33,284.06,46.77,283.22,46.77,283.22z"/>
	<path id="XMLID_22_" d="M49.58,284.76l0.28,0.14c0,0,0-0.14,0.14-0.42c0.28-0.7,1.12-2.25,2.39-3.23l0,0l0,0
		c0.28-0.28,0.56-0.28,0.84-0.28c0.14,0,0.28,0,0.42,0.14c0.14,0.14,0.14,0.14,0.14,0.28c0,0.14,0,0.28-0.14,0.56l0.28,0.14
		l-0.28-0.14c0,0-0.14,0.14-0.42,0.42c-0.84,0.7-2.25,1.82-3.37,3.09l0.14,0.14l-0.14-0.14l0.14,0.14v-0.14h-0.14l0.14,0.14v-0.14
		v0.14l0.14-0.14H50v0.14l0.14-0.14l0,0L50,285.19c0-0.14,0-0.28,0-0.28L49.58,284.76l0.28,0.14L49.58,284.76H49.3
		c0,0,0,0.14,0.14,0.42l0.14,0.28l0.14,0.14l0.28,0.14l0.28-0.14l0,0l0,0c0.7-0.84,1.54-1.54,2.39-2.25
		c0.42-0.28,0.7-0.56,0.98-0.84c0.28-0.28,0.42-0.42,0.56-0.56l0,0l0,0c0.14-0.28,0.28-0.56,0.28-0.84s-0.14-0.56-0.28-0.7
		c-0.14-0.14-0.42-0.28-0.7-0.28c-0.42,0-0.84,0.14-1.26,0.42l0.14,0.14l-0.14-0.14c-1.82,1.4-2.67,3.79-2.81,3.93v0.14v0.14
		L49.58,284.76z M28.39,283.22h0.28c0,0-0.42-2.53-1.82-4.35c-0.42-0.42-0.84-0.7-1.4-0.7c-0.28,0-0.42,0-0.7,0.28
		c-0.14,0.14-0.28,0.42-0.28,0.7c0,0.14,0,0.42,0.14,0.56c0,0.14,0.14,0.28,0.42,0.56c0.56,0.84,1.82,2.25,2.67,3.65l0.28-0.14
		l-0.28,0.14c0,0.14,0.14,0.14,0.28,0.14c0.14,0,0.28-0.14,0.28-0.14c0.28-0.28,0.42-0.56,0.42-0.56v-0.14v-0.14L28.39,283.22
		l-0.28-0.14c0,0-0.14,0.14-0.14,0.28l-0.14,0.14l0,0v0.14v-0.14l0,0v0.14v-0.14v0.14l0.14-0.14l-0.14-0.14v0.14l0.14-0.14l0,0l0,0
		c-0.56-0.98-1.26-1.96-1.82-2.67c-0.28-0.42-0.56-0.7-0.84-0.98c-0.14-0.14-0.14-0.28-0.28-0.28v-0.14l0,0l0,0
		c0-0.14-0.14-0.28-0.14-0.42c0-0.14,0-0.28,0.14-0.28c0,0,0.14-0.14,0.28-0.14c0.28,0,0.7,0.14,0.98,0.42
		c0.7,0.84,1.12,1.82,1.4,2.67c0.14,0.42,0.28,0.84,0.28,0.98c0,0.28,0.14,0.42,0.14,0.42L28.39,283.22l-0.28-0.14L28.39,283.22z
		 M25.58,284.76l0.28-0.14c0,0-0.84-2.53-2.81-3.93l-0.14,0.14l0.14-0.14c-0.42-0.28-0.84-0.42-1.26-0.42c-0.28,0-0.56,0-0.7,0.28
		c-0.28,0.14-0.28,0.42-0.28,0.7c0,0.28,0.14,0.56,0.28,0.84l0,0l0,0c0.14,0.14,0.28,0.28,0.56,0.56c0.84,0.7,2.25,1.82,3.37,2.95
		l0,0l0,0l0.28,0.14l0.28-0.14c0.14-0.14,0.28-0.42,0.28-0.56s0.14-0.28,0.14-0.28v-0.14v-0.14L25.58,284.76H25.3
		c0,0,0,0.14-0.14,0.28l-0.14,0.28l0,0l0.14,0.14v-0.14h-0.14l0.14,0.14v-0.14v0.14l0.14-0.14h-0.14v0.14l0.14-0.14l-0.14,0.14
		l0.14-0.14c-0.7-0.84-1.68-1.68-2.39-2.25c-0.42-0.28-0.7-0.56-0.98-0.84c-0.28-0.14-0.42-0.42-0.42-0.42l-0.28,0.14l0.28-0.14
		c-0.14-0.28-0.14-0.42-0.14-0.56c0-0.14,0-0.28,0.14-0.28c0.14-0.14,0.28-0.14,0.42-0.14c0.28,0,0.56,0.14,0.84,0.28l0,0l0,0
		c0.84,0.56,1.54,1.54,1.96,2.25c0.28,0.42,0.42,0.7,0.42,0.98c0.14,0.28,0.14,0.42,0.14,0.42L25.58,284.76H25.3H25.58z
		 M46.77,283.22h0.28c0,0,0-0.14,0.14-0.42c0.14-0.7,0.7-2.53,1.68-3.65c0.28-0.28,0.7-0.42,0.98-0.42c0.14,0,0.28,0,0.28,0.14
		c0,0,0.14,0.14,0.14,0.28s0,0.28-0.14,0.42l0,0c0,0-0.14,0.28-0.42,0.56c-0.56,0.84-1.82,2.25-2.67,3.65l0,0l0,0l0.14,0.14v-0.14
		l-0.14,0.14l0.14,0.14v-0.14v0.14v-0.14l0,0v0.14v-0.14c0,0-0.14-0.14-0.28-0.28c-0.14-0.14-0.14-0.28-0.14-0.28L46.77,283.22h0.28
		H46.77l-0.28,0.14c0,0,0.14,0.14,0.28,0.28l0.14,0.28c0.14,0.14,0.14,0.14,0.28,0.14s0.28-0.14,0.28-0.14l-0.28-0.14l0.28,0.14
		c0.56-0.98,1.26-1.96,1.82-2.67c0.28-0.42,0.56-0.7,0.84-0.98c0.14-0.28,0.28-0.42,0.42-0.56c0-0.14,0.14-0.42,0.14-0.56
		c0-0.28-0.14-0.56-0.28-0.7c-0.14-0.14-0.42-0.28-0.7-0.28c-0.42,0-0.98,0.28-1.4,0.7c-1.54,1.82-1.82,4.35-1.82,4.35v0.14v0.14
		L46.77,283.22z"/>
	<path id="XMLID_27_" class="st1" d="M44.95,282.8c0,0,4.77-14.87-2.39-23.57c-0.56-0.14-1.26-0.42-1.96-0.98
		c0,0-0.7-1.26-2.67-1.26c-1.82,0-3.23,1.26-3.23,1.26c-0.84,0.42-1.54,0.84-2.25,0.98c-7.02,8.84-2.1,23.71-2.1,23.71
		C37.51,280.13,44.81,282.8,44.95,282.8z"/>
	<path id="XMLID_28_" d="M44.95,282.8l0.28,0.14c0,0,1.54-4.77,1.54-10.66c0-4.35-0.84-9.4-3.93-13.19v-0.14H42.7
		c-0.56-0.14-1.26-0.42-1.82-0.98l-0.14,0.14l0.28-0.14c0,0-0.84-1.4-2.95-1.4c-1.96,0-3.37,1.4-3.37,1.4l0.14,0.14l-0.14-0.28
		c-0.84,0.42-1.54,0.84-2.25,0.98h-0.14v0.14c-2.95,3.79-3.79,8.56-3.79,12.91c0,6.03,1.68,11.08,1.68,11.08l0.14,0.28l0.28-0.14
		c2.53-0.98,4.91-1.26,7.16-1.26c2.1,0,3.93,0.28,5.19,0.56c0.7,0.14,1.12,0.28,1.54,0.42c0.14,0,0.28,0.14,0.42,0.14h0.14l0,0h0.14
		h0.14v-0.14H44.95v-0.28V282.8v-0.28l0,0V282.8v-0.28l0,0l0,0l0,0l0,0l0,0c0,0-0.28-0.14-0.7-0.14c-1.12-0.28-3.65-0.98-6.88-0.98
		c-2.25,0-4.77,0.28-7.3,1.26l0.14,0.28l0.28-0.14c0,0-0.14-0.28-0.28-0.84c-0.42-1.68-1.4-5.61-1.4-9.96
		c0-4.21,0.84-8.98,3.79-12.63l-0.14-0.14v0.28c0.84-0.14,1.54-0.56,2.39-0.98l0,0l0,0l0,0c0.28-0.28,1.54-1.26,3.09-1.26
		c0.84,0,1.54,0.28,1.82,0.56c0.14,0.14,0.28,0.28,0.42,0.42l0.14,0.14l0,0l0,0l0,0l0,0c0.7,0.56,1.4,0.84,2.1,0.98v-0.28
		l-0.14,0.14c2.95,3.79,3.93,8.56,3.93,12.91c0,2.81-0.42,5.47-0.7,7.44c-0.14,0.98-0.42,1.68-0.56,2.25
		c-0.14,0.56-0.28,0.84-0.28,0.84L44.95,282.8v-0.28V282.8z"/>
	<path id="XMLID_29_" class="st2" d="M42.7,272.42c0-0.7,0.56-1.26,1.26-1.26c0.56,0,1.26,0.56,1.26,1.26s-0.56,1.26-1.26,1.26
		C43.4,273.68,42.7,273.12,42.7,272.42z"/>
	<path id="XMLID_30_" d="M42.7,272.42h0.28c0-0.28,0.14-0.56,0.28-0.7s0.42-0.28,0.7-0.28c0.28,0,0.42,0.14,0.7,0.28
		c0.14,0.14,0.28,0.42,0.28,0.7s-0.14,0.56-0.28,0.7s-0.42,0.28-0.7,0.28c-0.28,0-0.42-0.14-0.7-0.28c-0.14-0.14-0.28-0.42-0.28-0.7
		H42.7h-0.28c0,0.84,0.7,1.4,1.4,1.4s1.4-0.56,1.4-1.4c0-0.42-0.14-0.7-0.42-0.98c-0.28-0.28-0.56-0.42-0.98-0.42
		c-0.7,0-1.4,0.56-1.4,1.4H42.7z"/>
	<path id="XMLID_31_" class="st3" d="M13.1,260.21h8.98c1.4,0,2.53,1.26,2.53,2.53v6.03c0,1.4-1.26,2.53-2.53,2.53H13.1
		c-1.4,0-2.53-1.26-2.53-2.53v-6.03C10.43,261.33,11.69,260.21,13.1,260.21z"/>
	<path id="XMLID_32_" d="M13.1,260.21v0.28h8.98c1.26,0,2.25,1.12,2.25,2.25v6.03c0,1.26-1.12,2.25-2.25,2.25H13.1
		c-1.26,0-2.25-1.12-2.25-2.25v-6.03l0,0v-0.14c0-0.56,0.28-1.12,0.7-1.4c0.42-0.42,0.98-0.7,1.54-0.7V260.21v-0.28
		c-1.54,0-2.81,1.12-2.81,2.67v0.14h0.28h-0.28v6.03c0,1.4,1.26,2.81,2.81,2.81h8.98c1.4,0,2.81-1.12,2.81-2.81v-6.03
		c0-1.4-1.12-2.81-2.81-2.81H13.1V260.21z"/>
	<path id="XMLID_33_" d="M14.08,261.61h7.16c1.12,0,1.96,0.84,1.96,1.96v4.35c0,1.12-0.84,1.96-1.96,1.96h-7.16
		c-1.12,0-1.96-0.84-1.96-1.96v-4.35C12.11,262.45,13.1,261.61,14.08,261.61z"/>
	<path id="XMLID_34_" d="M14.08,261.61v0.28h7.16c0.98,0,1.68,0.7,1.68,1.68v4.35c0,0.98-0.7,1.68-1.68,1.68h-7.16
		c-0.98,0-1.68-0.7-1.68-1.68v-4.35c0-0.42,0.14-0.84,0.56-1.12c0.28-0.28,0.7-0.42,1.12-0.42L14.08,261.61l0-0.28
		c-1.12,0-2.25,0.98-2.25,2.25v4.35c0,0.56,0.28,1.12,0.7,1.54c0.42,0.42,0.98,0.7,1.54,0.7h7.16c0.56,0,1.12-0.28,1.54-0.7
		c0.42-0.42,0.7-0.98,0.7-1.54v-4.35c0-0.56-0.28-1.12-0.7-1.54s-0.98-0.7-1.54-0.7h-7.16C14.08,261.33,14.08,261.61,14.08,261.61z"
		/>
	<path id="XMLID_35_" class="st4" d="M23.2,266.94c-3.23-0.42-4.35-4.07-4.63-5.19h2.67c1.12,0,1.96,0.84,1.96,1.96V266.94z"/>
	<path id="XMLID_36_" d="M23.2,266.94v-0.28c-1.54-0.14-2.53-1.12-3.23-2.25c-0.7-1.12-0.98-2.25-1.12-2.81h-0.28v0.28h2.67
		c0.98,0,1.68,0.7,1.68,1.68v3.23h0.28v-0.28V266.94h0.28v-3.23c0-0.56-0.28-1.12-0.7-1.54c-0.42-0.42-0.98-0.7-1.54-0.7h-2.95v0.28
		c0.14,0.56,0.42,1.82,1.26,2.95c0.7,1.12,1.82,2.25,3.65,2.39h0.28v-0.28H23.2V266.94z"/>
	<path id="XMLID_37_" class="st4" d="M16.88,261.61c-0.28,1.12-1.26,5.05-4.77,5.19v-3.23c0-1.12,0.84-1.96,1.96-1.96L16.88,261.61
		L16.88,261.61z"/>
	<path id="XMLID_38_" d="M16.88,261.61H16.6c-0.14,0.56-0.42,1.82-1.12,2.81c-0.7,1.12-1.68,2.1-3.37,2.1v0.28h0.28v-3.23
		c0-0.98,0.7-1.68,1.68-1.68h2.81L16.88,261.61H16.6H16.88v-0.28h-2.81c-0.56,0-1.12,0.28-1.54,0.7c-0.42,0.42-0.7,0.98-0.7,1.54
		v3.51h0.28c1.82,0,3.09-1.12,3.79-2.39c0.7-1.12,0.98-2.53,1.12-3.09v-0.28h-0.28v0.28H16.88z"/>
	<path id="XMLID_39_" class="st3" d="M53.09,260.21h8.98c1.4,0,2.53,1.26,2.53,2.53v6.03c0,1.4-1.26,2.53-2.53,2.53h-8.98
		c-1.4,0-2.53-1.26-2.53-2.53v-6.03C50.56,261.33,51.68,260.21,53.09,260.21z"/>
	<path id="XMLID_40_" d="M53.09,260.21v0.28h8.98c1.26,0,2.25,1.12,2.25,2.25v6.03c0,1.26-1.12,2.25-2.25,2.25h-8.98
		c-1.26,0-2.25-1.12-2.25-2.25v-6.03c0-1.12,0.98-2.25,2.25-2.25V260.21v-0.28c-1.54,0-2.81,1.26-2.81,2.81v6.03
		c0,1.4,1.12,2.81,2.81,2.81h8.98c1.4,0,2.81-1.12,2.81-2.81v-6.03c0-1.4-1.26-2.81-2.81-2.81h-8.98V260.21z"/>
	<path id="XMLID_41_" d="M54.21,261.61h7.16c1.12,0,1.96,0.84,1.96,1.96v4.35c0,1.12-0.84,1.96-1.96,1.96h-7.16
		c-1.12,0-1.96-0.84-1.96-1.96v-4.35C52.24,262.45,53.09,261.61,54.21,261.61z"/>
	<path id="XMLID_42_" d="M54.21,261.61v0.28h7.16c0.98,0,1.68,0.7,1.68,1.68v4.35c0,0.98-0.7,1.68-1.68,1.68h-7.16
		c-0.98,0-1.68-0.7-1.68-1.68v-4.35c0-0.98,0.7-1.68,1.68-1.68V261.61v-0.28c-0.56,0-1.12,0.28-1.54,0.7
		c-0.42,0.42-0.7,0.98-0.7,1.54v4.35c0,0.56,0.28,1.12,0.7,1.54c0.42,0.42,0.98,0.7,1.54,0.7h7.16c0.56,0,1.12-0.28,1.54-0.7
		c0.42-0.42,0.7-0.98,0.7-1.54v-4.35c0-0.56-0.28-1.12-0.7-1.54c-0.42-0.42-0.98-0.7-1.54-0.7h-7.16V261.61z"/>
	<path id="XMLID_43_" class="st4" d="M63.19,266.94c-3.23-0.42-4.35-4.07-4.63-5.19h2.67c1.12,0,1.96,0.84,1.96,1.96V266.94z"/>
	<path id="XMLID_44_" d="M63.19,266.94v-0.28c-1.54-0.14-2.53-1.12-3.23-2.25c-0.7-1.12-0.98-2.25-1.12-2.81h-0.28v0.28h2.67
		c0.98,0,1.68,0.7,1.68,1.68v3.23h0.28v-0.28V266.94h0.28v-3.23c0-0.56-0.28-1.12-0.7-1.54c-0.42-0.42-0.98-0.7-1.54-0.7h-2.95v0.28
		c0.14,0.56,0.42,1.82,1.26,2.95c0.7,1.12,1.82,2.25,3.65,2.39h0.28v-0.28h-0.28V266.94z"/>
	<path id="XMLID_45_" class="st4" d="M56.87,261.61c-0.28,1.12-1.26,5.05-4.77,5.19v-3.23c0-1.12,0.84-1.96,1.96-1.96L56.87,261.61
		L56.87,261.61z"/>
	<path id="XMLID_46_" d="M56.87,261.61h-0.28c-0.14,0.56-0.42,1.82-1.12,2.81c-0.7,1.12-1.68,2.1-3.37,2.1v0.28h0.28v-3.23
		c0-0.98,0.7-1.68,1.68-1.68h2.81L56.87,261.61h-0.28H56.87v-0.28h-2.81c-0.56,0-1.12,0.28-1.54,0.7c-0.42,0.42-0.7,0.98-0.7,1.54
		v3.51h0.28c1.82,0,3.09-1.12,3.79-2.39c0.7-1.12,0.98-2.53,1.12-3.09v-0.28h-0.28v0.28H56.87z"/>
	<path id="XMLID_47_" class="st5" d="M28.53,281.96c0,0-2.39,0.42-3.37,1.82c-0.98,1.4,0.14,3.23,1.26,3.51
		c4.63,1.12,10.94,1.12,11.08,0.98c0.14,0.14,6.88,0.28,11.23-0.98c1.12-0.42,2.1-2.1,1.26-3.51c-0.84-1.4-3.37-1.82-3.37-1.82
		C46.35,280.7,28.81,281.12,28.53,281.96z"/>
	<path id="XMLID_48_" d="M28.53,281.96v-0.28c0,0-0.56,0.14-1.4,0.42c-0.7,0.28-1.68,0.7-2.1,1.54c-0.28,0.42-0.42,0.84-0.42,1.4
		s0.28,1.12,0.56,1.68c0.28,0.42,0.7,0.84,1.26,0.84v-0.28v0.28c3.51,0.84,8,0.98,9.96,0.98c0.28,0,0.56,0,0.84,0h0.28h0.14
		l0.14-0.14l-0.14-0.14l-0.14,0.14h0.14h0.28c0.28,0,0.84,0,1.54,0c2.39,0,6.59-0.14,9.68-0.98l0,0l0,0
		c0.84-0.28,1.68-1.4,1.82-2.53c0-0.42-0.14-0.98-0.42-1.4l-0.28,0.14l0.28-0.14c-0.42-0.84-1.4-1.26-2.1-1.54
		c-0.7-0.28-1.4-0.42-1.4-0.42v0.28h0.28c0-0.28-0.14-0.28-0.28-0.42c-0.28-0.14-0.56-0.28-1.12-0.28c-1.4-0.28-3.79-0.28-6.45-0.28
		c-2.39,0-5.05,0.14-7.02,0.28c-0.98,0.14-1.82,0.14-2.53,0.28c-0.28,0-0.56,0.14-0.7,0.14l-0.28,0.14c-0.14,0-0.14,0.14-0.14,0.28
		L28.53,281.96v-0.28V281.96l0.28,0.14L28.53,281.96l0.14,0.14l0,0L28.53,281.96l0.14,0.14l0,0l0,0l0,0l0,0l0,0
		c0,0,0.14,0,0.28-0.14c1.4-0.28,5.89-0.56,9.96-0.56c1.96,0,3.79,0,5.19,0.14c0.7,0,1.26,0.14,1.68,0.28
		c0.14,0,0.28,0.14,0.42,0.14l0,0l0,0l0,0l0,0l0,0l0,0h0.14h-0.14l0,0h0.14h-0.14v0.14h0.14c0,0,0.14,0,0.42,0.14
		c0.7,0.14,2.25,0.7,2.81,1.54l0,0l0,0c0.28,0.42,0.28,0.7,0.28,1.12c0,0.98-0.7,1.82-1.4,2.1l0.14,0.28v-0.28
		c-2.95,0.84-7.16,0.98-9.54,0.98c-0.56,0-0.84,0-1.12,0c-0.14,0-0.28,0-0.28,0h-0.14l0,0v0.14l0.14-0.14h-0.14v0.14l0.14-0.14
		l-0.14-0.14l-0.14,0.14l0.14,0.14v-0.14h-0.14l0.14,0.14v-0.14c0,0-0.14,0-0.28,0s-0.42,0-0.7,0c-2.1,0-6.45-0.14-9.96-0.98l0,0
		l0,0c-0.28,0-0.7-0.28-0.98-0.7s-0.42-0.84-0.42-1.26s0.14-0.7,0.28-1.12c0.42-0.7,1.26-1.12,1.96-1.4
		c0.28-0.14,0.7-0.28,0.84-0.28c0.28,0,0.42-0.14,0.42-0.14h0.14v-0.14L28.53,281.96z"/>
	<path id="XMLID_49_" d="M28.39,282.24c0,0,0.14,0,0.56-0.14c1.12-0.14,4.07-0.56,8.14-0.56c2.67,0,5.89,0.14,9.4,0.56v-0.56
		c-3.65-0.42-6.88-0.56-9.54-0.56c-5.47,0-8.7,0.56-8.7,0.56L28.39,282.24L28.39,282.24z"/>
	<path id="XMLID_50_" class="st0" d="M56.03,233.13v-7.3l8.84-0.42l0.42,11.51C60.38,233.69,60.24,235.09,56.03,233.13z"/>
	<path id="XMLID_51_" d="M56.03,233.13h0.7v-6.59l7.44-0.42l0.28,10.8h0.7l0.42-0.56c-2.39-1.54-3.79-2.1-5.05-2.39
		c-1.26-0.28-2.25-0.42-4.21-1.4L56.03,233.13h0.7H56.03l-0.28,0.56c2.1,0.98,3.37,1.12,4.49,1.4c1.12,0.28,2.25,0.7,4.63,2.25
		l1.12,0.7l-0.42-13.33l-10.1,0.56v8.28l0.42,0.14L56.03,233.13z"/>
	<path id="XMLID_52_" d="M64.45,250.39c0,0.28,0,0.84,0,1.54c0,2.81,0.56,8.28,5.05,13.61c2.39,2.81,3.37,5.61,3.37,8.28
		c0,3.65-1.82,6.88-5.05,9.26c-3.09,2.39-7.44,3.93-12.21,3.93c-1.54,0-3.09-0.14-4.63-0.42h-0.14H50.7c0,0-0.42,0.14-1.12,0.14
		c-2.1,0.28-6.88,0.98-11.93,0.98c-3.37,0-6.59-0.28-9.12-0.56c-1.26-0.14-2.25-0.28-2.95-0.42c-0.7-0.14-1.12-0.14-1.12-0.14h-0.14
		h-0.14c-1.54,0.28-3.09,0.42-4.63,0.42c-4.77,0-9.26-1.54-12.49-3.93c-3.23-2.39-5.19-5.75-5.19-9.4c0-2.53,0.98-5.33,3.23-8.14
		l0,0l0,0c4.35-5.33,5.05-10.66,5.05-13.47c0-0.84,0-1.4-0.14-1.82l-1.26,0.28c0,0.28,0.14,0.84,0.14,1.54
		c0,2.53-0.7,7.72-4.77,12.63l0,0c-2.53,2.95-3.51,6.03-3.51,8.98c0,4.07,2.25,7.86,5.61,10.38c3.51,2.67,8.14,4.21,13.19,4.21
		c1.54,0,3.23-0.14,4.91-0.42l-0.14-0.7l-0.14,0.7c0,0,6.31,1.26,13.33,1.26s13.19-1.26,13.33-1.26l-0.14-0.7l-0.14,0.7
		c1.68,0.42,3.37,0.56,4.91,0.56c5.05,0,9.68-1.54,13.05-4.21s5.47-6.31,5.47-10.38c0-2.95-1.12-6.03-3.65-9.12
		c-4.21-5.05-4.77-10.1-4.77-12.77c0-0.7,0-1.12,0-1.54L64.45,250.39L64.45,250.39z"/>
	<path id="XMLID_53_" class="st5" d="M37.37,223.59c-0.7,0-2.25,0.42-2.25,0.42s-21.05,7.3-32.83,18.8
		c-3.23,3.23-1.82,7.44,2.25,7.44c3.23,0,32.69,0,32.69,0s29.47,0,32.69,0c4.07,0,5.61-4.21,2.25-7.44
		c-11.51-11.51-32.83-18.8-32.83-18.8S38.21,223.59,37.37,223.59z"/>
	<path id="XMLID_54_" d="M37.37,223.59v-0.7c-0.56,0-1.12,0.14-1.54,0.28c-0.56,0.14-0.84,0.28-0.84,0.28l0,0l0,0
		c0,0-5.33,1.82-12.07,5.05c-6.74,3.23-15.01,8-20.91,13.89l0,0c-1.26,1.26-1.96,2.81-1.96,4.35c0,1.12,0.42,2.25,1.26,3.09
		c0.84,0.84,1.96,1.26,3.51,1.26c3.23,0,32.69,0,32.69,0s29.47,0,32.69,0c1.4,0,2.67-0.42,3.51-1.26c0.84-0.84,1.26-1.82,1.26-3.09
		c0-1.4-0.7-2.95-1.96-4.35c-5.89-5.89-14.17-10.66-20.91-13.89c-6.74-3.23-12.07-5.05-12.07-5.05l-0.28,0.56l0.28-0.56
		c0,0-0.42-0.14-0.84-0.28c-0.42-0.14-0.98-0.28-1.54-0.28v0.7v0.7c0.28,0,0.7,0.14,1.12,0.28c0.14,0,0.42,0.14,0.56,0.14
		c0.14,0,0.14,0,0.14,0l0,0l0,0c0,0,0.28,0.14,0.98,0.28c4.21,1.54,21.61,8.28,31.57,18.38c1.12,1.12,1.54,2.39,1.54,3.37
		c0,0.84-0.28,1.54-0.84,2.1c-0.56,0.56-1.4,0.84-2.53,0.84c-1.54,0-9.68,0-17.54,0c-3.93,0-7.72,0-10.52,0s-4.63,0-4.63,0
		s-29.47,0-32.69,0c-1.12,0-1.96-0.42-2.53-0.84c-0.56-0.56-0.84-1.26-0.84-2.1c0-0.98,0.42-2.25,1.54-3.37l0,0
		c5.75-5.75,13.89-10.38,20.63-13.61c3.37-1.68,6.31-2.95,8.42-3.79c1.12-0.42,1.96-0.7,2.53-0.98s0.98-0.28,0.98-0.28l-0.28-0.56
		l0.14,0.56c0,0,0.14,0,0.28-0.14c0.28,0,0.56-0.14,0.98-0.28c0.42-0.14,0.7-0.14,0.84-0.14v-0.56H37.37z"/>
	<path id="XMLID_55_" class="st3" d="M41.16,256.42c1.82,0.98,3.37,2.39,4.49,3.79c1.54,2.1,4.77,7.86,3.09,15.01
		c0,0,1.96,1.96,5.47,5.33c2.1,2.1-1.26,5.05-2.67,7.02h-3.79c0,0,1.4-1.82,0.42-3.51c-0.56-1.26-2.95-1.54-2.95-1.54
		s1.12-2.39-0.7-2.95c0,0,3.37-8.7-0.42-16.56c-1.26-2.53-2.95-4.91-6.03-5.33c-0.7,0-1.4,0-2.1,0.28
		c-2.67,0.98-3.93,2.81-5.19,5.47c-3.65,7.58-0.14,16.14-0.14,16.14c-1.68,0.56-0.56,2.95-0.56,2.95s-2.25,0.42-2.95,1.54
		c-0.98,1.68,0.42,3.51,0.42,3.51h-3.79c-0.98-1.26-4.07-4.91-3.09-7.3c1.26-2.25,5.75-4.91,5.75-4.91
		c-1.4-6.59,1.12-11.79,2.81-14.31c1.26-1.96,3.37-3.79,5.75-4.77C37.37,255.16,38.91,255.16,41.16,256.42z"/>
	<path id="XMLID_56_" d="M41.16,256.42l-0.14,0.28c1.82,0.98,3.37,2.39,4.35,3.79l0.14-0.14l-0.14,0.14
		c1.26,1.68,3.51,5.75,3.51,10.94c0,1.26-0.14,2.53-0.42,3.79v0.14l0.14,0.14c0,0,1.96,1.96,5.47,5.33l0.14-0.14l-0.14,0.14
		c0.42,0.42,0.56,0.84,0.56,1.4c0,0.84-0.56,1.82-1.12,2.67c-0.7,0.98-1.54,1.82-2.1,2.67l0.14,0.14v-0.28h-3.79v0.28l0.14,0.14
		c0,0,0.84-1.12,0.84-2.39c0-0.42-0.14-0.98-0.42-1.4l-0.28,0.14l0.28-0.14c-0.42-0.7-1.12-1.12-1.82-1.4
		c-0.7-0.28-1.26-0.28-1.26-0.28v0.28l0.28,0.14c0,0,0.28-0.7,0.28-1.54c0-0.28,0-0.7-0.28-0.98c-0.14-0.28-0.56-0.56-0.98-0.7
		l-0.14,0.28l0.28,0.14c0,0,1.4-3.65,1.4-8.28c0-2.67-0.42-5.47-1.82-8.42c-1.26-2.53-3.09-5.05-6.17-5.47l0,0l0,0
		c-0.7,0-1.54,0-2.25,0.28l0,0l0,0c-2.67,0.98-4.07,2.95-5.33,5.61l0.28,0.14l-0.28-0.14c-1.26,2.67-1.68,5.33-1.68,7.86
		c0,4.77,1.54,8.56,1.54,8.56l0.28-0.14l-0.14-0.28c-0.42,0.14-0.7,0.42-0.84,0.7c-0.14,0.28-0.28,0.7-0.28,0.98
		c0,0.84,0.42,1.68,0.42,1.68l0.28-0.14v-0.28c0,0-0.56,0.14-1.26,0.28c-0.7,0.28-1.4,0.7-1.82,1.4l0.28,0.14l-0.28-0.14
		c-0.28,0.42-0.42,0.98-0.42,1.4c0,1.4,0.84,2.39,0.84,2.39l0.14-0.14v-0.28h-3.79v0.28l0.14-0.14c-0.42-0.56-1.26-1.54-1.96-2.67
		c-0.7-1.12-1.26-2.39-1.26-3.51c0-0.28,0-0.56,0.14-0.84l-0.28-0.14l0.28,0.14c0.56-1.12,1.96-2.25,3.23-3.23
		c0.7-0.42,1.26-0.84,1.68-1.12c0.42-0.28,0.7-0.42,0.7-0.42l0.14-0.14v-0.14c-0.28-1.4-0.42-2.67-0.42-3.93
		c0-4.63,1.82-8.28,3.23-10.24l0,0l0,0c1.12-1.82,3.37-3.65,5.61-4.77l-0.14-0.28l0.14,0.28c1.12-0.42,1.96-0.7,2.81-0.7
		c0.98,0,1.96,0.28,3.09,0.98l0,0l0,0L41.16,256.42l0.14-0.28c-1.26-0.7-2.25-1.12-3.37-1.12c-0.98,0-1.82,0.28-2.95,0.7l0,0l0,0
		c-2.39,1.12-4.63,2.95-5.89,4.91l0.28,0.14l-0.28-0.14c-1.4,1.96-3.23,5.75-3.23,10.52c0,1.26,0.14,2.67,0.42,3.93h0.28l-0.14-0.28
		c0,0-1.12,0.7-2.53,1.68c-1.26,0.98-2.81,2.25-3.37,3.37l0,0l0,0c-0.14,0.28-0.14,0.7-0.14,1.12c0,1.26,0.7,2.53,1.4,3.79
		c0.7,1.12,1.54,2.25,1.96,2.81l0.14,0.14h4.49l-0.28-0.42l0,0c-0.14-0.14-0.7-1.12-0.7-2.1c0-0.42,0.14-0.7,0.28-1.12l0,0l0,0
		c0.28-0.56,0.84-0.84,1.54-1.12c0.28-0.14,0.56-0.14,0.84-0.28c0.28,0,0.28-0.14,0.28-0.14h0.28l-0.14-0.28v-0.14
		c-0.14-0.28-0.28-0.84-0.28-1.26c0-0.28,0-0.56,0.14-0.7c0.14-0.14,0.28-0.42,0.56-0.56l0.28-0.14l-0.14-0.28
		c0,0-0.14-0.28-0.28-0.7c-0.42-1.26-1.26-4.21-1.26-7.72c0-2.39,0.42-5.05,1.68-7.58l0,0l0,0c1.26-2.67,2.53-4.35,5.05-5.33
		l-0.14-0.28l0.14,0.28c0.7-0.28,1.4-0.28,2.1-0.28v-0.28v0.28c2.95,0.28,4.63,2.67,5.89,5.19c1.26,2.81,1.68,5.61,1.68,8.14
		c0,2.25-0.28,4.35-0.7,5.75c-0.14,0.7-0.28,1.26-0.42,1.68c-0.14,0.42-0.28,0.56-0.28,0.56l-0.14,0.28l0.28,0.14
		c0.42,0.14,0.56,0.28,0.7,0.56c0.14,0.28,0.14,0.56,0.14,0.84s-0.14,0.7-0.14,0.98c0,0.14-0.14,0.28-0.14,0.28v0.14l-0.14,0.28
		h0.28c0,0,0.14,0,0.28,0.14c0.28,0.14,0.84,0.28,1.26,0.42c0.42,0.28,0.84,0.56,1.12,0.84l0,0l0,0c0.28,0.42,0.28,0.7,0.28,1.12
		c0,0.56-0.14,1.12-0.42,1.4c-0.14,0.14-0.14,0.28-0.28,0.42l-0.14,0.14l0,0l-0.28,0.42h4.49l0.14-0.14c0.56-0.7,1.4-1.68,2.1-2.67
		s1.26-1.96,1.26-2.95c0-0.56-0.28-1.26-0.7-1.68l0,0l0,0c-1.68-1.68-3.09-2.95-4.07-3.93c-0.98-0.84-1.4-1.4-1.4-1.4l-0.14,0.14
		h0.28c0.28-1.4,0.42-2.67,0.42-3.93c0-5.33-2.39-9.4-3.65-11.23l0,0l0,0c-1.12-1.54-2.67-2.95-4.49-3.93L41.16,256.42l0.14-0.28
		L41.16,256.42z"/>
</g>
</svg>
