<?xml version="1.0" encoding="UTF-8"?>
<svg xmlns="http://www.w3.org/2000/svg" version="1.1" viewBox="0 0 433.6 165.7">
  <!-- Generator: Adobe Illustrator 29.5.1, SVG Export Plug-In . SVG Version: 2.1.0 Build 141)  -->
  <defs>
    <style>
      .st0 {
        fill-rule: evenodd;
      }

      .st0, .st1 {
        fill: #fff;
      }
    </style>
  </defs>
  <g id="Capa_2">
    <g>
      <path class="st1" d="M276.9,112.4h-12.3l-17.4-18.2v18.2h-9.7v-59.6h9.7v33.4l16.4-17.1h12.2s-19.6,21.3-19.6,21.3l20.7,22Z"/>
      <ellipse class="st1" cx="306.6" cy="58.3" rx="6.1" ry="5.9"/>
      <ellipse class="st1" cx="401.1" cy="58.3" rx="6.1" ry="5.9"/>
      <ellipse class="st1" cx="288.5" cy="58.3" rx="6.1" ry="5.9"/>
      <path class="st1" d="M281,107c-4.4-4.4-6.6-9.8-6.6-16.2s2.2-11.8,6.6-16.2c4.4-4.3,9.9-6.5,16.6-6.5s12.1,2.2,16.6,6.5c4.4,4.4,6.6,9.8,6.6,16.2s-2.2,11.9-6.6,16.2c-4.4,4.4-10,6.5-16.6,6.5s-12.2-2.2-16.6-6.5ZM297.6,104.3c3.8,0,7-1.3,9.5-3.9,2.5-2.6,3.8-5.8,3.8-9.7s-1.3-7.1-3.8-9.6c-2.5-2.6-5.7-3.9-9.5-3.9s-7,1.3-9.6,3.9c-2.6,2.6-3.9,5.8-3.9,9.6s1.3,7.1,3.9,9.7c2.6,2.6,5.8,3.9,9.6,3.9Z"/>
      <path class="st1" d="M326.8,112.5v-59.7h9.6v59.7h-9.6Z"/>
      <path class="st1" d="M384.3,74.6c4.1,4.4,6.1,9.8,6.1,16.2s-2,11.9-6.1,16.2c-4.1,4.4-9.2,6.5-15.2,6.5s-11.5-2.6-15.3-7.8v6.7h-9.6v-59.7h9.6v23c3.8-5.2,8.9-7.7,15.3-7.7s11.1,2.2,15.2,6.5ZM367.2,104.3c3.8,0,7-1.3,9.6-3.9,2.5-2.6,3.8-5.8,3.8-9.7s-1.3-7.1-3.8-9.6c-2.6-2.6-5.8-3.9-9.6-3.9s-7,1.3-9.6,3.9c-5.2,5.2-5.2,14.2,0,19.3,2.6,2.6,5.8,3.9,9.6,3.9Z"/>
      <path class="st1" d="M396.3,112.5v-43.4h9.6v43.4h-9.6Z"/>
      <g>
        <path class="st1" d="M222.3,93.5c-4.3-4.3-11.3-4.3-15.6,0l-17,17c-.7.7-.2,1.8.8,1.8h24c2.9,0,5.8-1,8-3.2,4.3-4.3,4.3-11.3,0-15.6Z"/>
        <path class="st1" d="M152.2,93.5c4.3-4.3,11.3-4.3,15.6,0l17,17c.7.7.2,1.8-.8,1.8h-24c-2.9,0-5.8-1-8-3.2-4.3-4.3-4.3-11.3,0-15.6Z"/>
        <g>
          <path class="st1" d="M169.6,57.2c-4.6,0-8.3,3.7-8.3,8.3s3.7,8.3,8.3,8.3,8.3-3.7,8.3-8.3-3.7-8.3-8.3-8.3ZM169.6,71.4c-3.3,0-5.9-2.6-5.9-5.9s2.6-5.9,5.9-5.9,1.7.2,2.5.6c-.8.3-1.4,1.1-1.4,2.1s1,2.2,2.2,2.2,1.8-.6,2.1-1.4c.4.8.6,1.6.6,2.5,0,3.3-2.6,5.9-5.9,5.9Z"/>
          <path class="st1" d="M204.9,57.2c-4.6,0-8.3,3.7-8.3,8.3s3.7,8.3,8.3,8.3,8.3-3.7,8.3-8.3-3.7-8.3-8.3-8.3ZM204.9,71.4c-3.3,0-5.9-2.6-5.9-5.9s2.6-5.9,5.9-5.9,1.7.2,2.5.6c-.8.3-1.4,1.1-1.4,2.1s1,2.2,2.2,2.2,1.8-.6,2.1-1.4c.4.8.6,1.6.6,2.5,0,3.3-2.6,5.9-5.9,5.9Z"/>
          <path class="st1" d="M204.9,52.1c-6,0-11,3.8-12.8,9.2-.3.9-1.2,1.5-2.1,1.5h-5.6c-1,0-1.8-.6-2.1-1.5-1.8-5.3-6.8-9.2-12.8-9.2-7.4,0-13.5,6.2-13.4,13.6,0,5.9,3.9,10.9,9.2,12.6.6.2,1,.8.9,1.4,0,.4,0,.9,0,1.4,0,4.5,1.8,8.5,4.9,11.7h0s15.1,15.1,15.1,15.1c.6.6,1.5.6,2,0l15.1-15.1h0c3-3.2,4.9-7.3,4.9-11.7s0-.9,0-1.4c0-.6.3-1.2.9-1.4,5.3-1.8,9.1-6.7,9.2-12.6,0-7.4-6-13.6-13.4-13.6ZM169.6,75.6c-5.5,0-10.1-4.5-10.1-10.1s4.5-10.1,10.1-10.1,10.1,4.5,10.1,10.1-4.5,10.1-10.1,10.1ZM204.9,75.6c-5.5,0-10.1-4.5-10.1-10.1s4.5-10.1,10.1-10.1,10.1,4.5,10.1,10.1-4.5,10.1-10.1,10.1Z"/>
        </g>
      </g>
    </g>
  </g>
  <g id="Capa_1">
    <g>
      <g>
        <g>
          <g>
            <g>
              <path class="st1" d="M65,92.4c0-.1-.3-.1-.4,0-.7.7-1.3,1.1-2.3,1.1-1.5,0-2.6-1.2-2.6-2.9s1.1-2.8,2.6-2.8,1.5.3,2.2,1c0,0,.1,0,.2,0s.1,0,.2,0l1-1.1c0-.1,0-.3,0-.4-.7-.7-1.7-1.4-3.5-1.4-2.7,0-4.7,2.1-4.7,4.8s2,4.8,4.6,4.8,2.6-.5,3.7-1.6c0-.1,0-.3,0-.4l-1-1h0Z"/>
              <path class="st1" d="M71.2,85.8c-2.7,0-4.8,2.1-4.8,4.8s2,4.8,4.7,4.8,4.8-2.1,4.8-4.8-2-4.8-4.7-4.8ZM71.2,93.5c-1.5,0-2.6-1.2-2.6-2.9s1.1-2.8,2.6-2.8,2.6,1.2,2.6,2.9-1.1,2.8-2.6,2.8h0Z"/>
              <path class="st1" d="M80.8,89.6c-1.7-.4-1.8-.7-1.8-1.1s.4-.8,1.1-.8,1.4.3,2.2.8c0,0,.1,0,.2,0,0,0,.1,0,.2-.1l.8-1.2c0-.1,0-.3,0-.4-.9-.8-2-1.2-3.3-1.2-1.8,0-3.2,1.2-3.2,2.9s1.1,2.4,3.1,2.9c1.6.4,1.7.7,1.7,1.1,0,.6-.6.8-1.2.8-.9,0-1.7-.3-2.5-1.1,0,0-.1,0-.2,0s-.1,0-.2,0l-.9,1.1c0,.1,0,.3,0,.4,1.1,1,2.3,1.5,3.8,1.5,2,0,3.3-1.1,3.3-2.9s-1.4-2.5-3-2.8h0Z"/>
              <path class="st1" d="M91.8,87.6v-1.4c0-.2-.1-.3-.3-.3h-6.9c-.2,0-.3.1-.3.3v1.4c0,.2.1.3.3.3h2.4v7.1c0,.2.1.3.3.3h1.5c.2,0,.3-.1.3-.3v-7.1h2.4c.2,0,.3-.1.3-.3h0Z"/>
              <path class="st1" d="M96.7,86c0,0-.1-.2-.2-.2h-1.4c-.1,0-.2,0-.2.2l-3.8,8.8c0,0,0,.2,0,.3,0,0,.1.1.2.1h1.5c.1,0,.2,0,.2-.2l.8-1.9h3.7l.8,1.9c0,0,.1.2.2.2h1.6c0,0,.2,0,.2-.1,0,0,0-.2,0-.3,0,0-3.8-8.8-3.8-8.8ZM96.8,91.2h-2.1l1.1-2.5,1.1,2.5h0Z"/>
              <g>
                <path class="st1" d="M64.2,103.3c1.2-.5,1.9-1.5,1.9-2.8s-.3-1.6-.8-2.1c-.6-.6-1.6-1-2.7-1h-3.8c-.2,0-.3.1-.3.3v8.8c0,.2.1.3.3.3h1.5c.2,0,.3-.1.3-.3v-2.8h1.5l2,2.9c0,0,.1.1.2.1h1.8c0,0,.2,0,.2-.2,0,0,0-.2,0-.3l-2.1-3h0ZM60.6,99.4h1.9c.7,0,1.5.2,1.5,1.2s-.6,1.2-1.5,1.2h-1.9v-2.4Z"/>
                <path class="st1" d="M69.4,97.4h-1.5c-.2,0-.3.1-.3.3v8.8c0,.2.1.3.3.3h1.5c.2,0,.3-.1.3-.3v-8.8c0-.2-.1-.3-.3-.3Z"/>
                <path class="st1" d="M78.4,103.9c0-.1-.3-.1-.4,0-.7.7-1.3,1.1-2.3,1.1-1.5,0-2.6-1.2-2.6-2.9s1.1-2.8,2.6-2.8,1.5.3,2.2,1c0,0,.1,0,.2,0s.1,0,.2,0l1-1.1c0-.1,0-.3,0-.4-.7-.7-1.7-1.4-3.5-1.4-2.7,0-4.7,2.1-4.7,4.8s2,4.8,4.6,4.8,2.6-.5,3.7-1.6c0-.1,0-.3,0-.4l-1-1h0Z"/>
                <path class="st1" d="M89.2,106.4l-3.8-8.8c0,0-.1-.2-.2-.2h-1.4c-.1,0-.2,0-.2.2l-3.8,8.8c0,0,0,.2,0,.3,0,0,.1.1.2.1h1.5c.1,0,.2,0,.2-.2l.8-1.9h3.7l.8,1.9c0,0,.1.2.2.2h1.6c0,0,.2,0,.2-.1,0,0,0-.2,0-.3ZM85.5,102.7h-2.1l1.1-2.5s1.1,2.5,1.1,2.5Z"/>
              </g>
            </g>
            <g>
              <path class="st0" d="M70.5,81.6l-.2-.2c0,0-.1,0-.1-.1,0,0,0,0-.2,0,0,0,.1,0,0,0-.2-.1-.4-.6-.6-1.3,0,0,0-1,0-1.1,0-.5,0-.9,0-1.2,0-.2,0-.7,0-.8,0-.3,0-.2.1-.8,0,0,0-.2,0-.2,0-.2,0-.2,0-.3,0,0-.2-.2-.2-.3,0,0-.8,0-.8,0,0,0-.1,0-.1,0-.1,0-.2,0-.2,0-.1,0-.2,0-.3.1,0,0-.3.3-.4.4-.4.5.1,0,0,.2-.1.2-.4.4-.6.7-.1.1,0,.2-.2.3,0,0-.2.3-.2.4-.2.3-.6.5-.6.6-.2.3-.2.2-.4.6,0,0-.2.2-.2.3,0,0-.3.3-.5.6,0,0,0,.1,0,.1,0,0,0,0,0,0,0,0,0,0,0,0,0-.2,0-.4,0-.4,0,0,0-.2,0-.2.2-.4,0-.4.1-.8,0,.1,0-.2,0-.2,0-.2.1-.4.1-.6,0,0,.1-.3.1-.8,0-.2-.1-.1-.1-.1h0s0-.2-.5-.1c-.1,0-.3,0-.6,0-.1,0-.1,0-.3,0,0,0-.2.2-.2.3,0,0,0,0,0,0,0,0,0,0,0,0,0,0-.1.2-.2.3,0,0-.2.2-.2.3-.2.2-.2.2-.3.4,0,0-.1.2-.1.2v.2c-.2.2-.3.2-.4.3,0,.2-.7.6-.8.8,0-.1-.6.7-.8.7,0,0-1.1.9-1.8,1-.7.3-1.2,0-1.3,0-.1-.1-.2-.1-.2-.2,0,0,0,0,0,0-.5-.4-.2-.9-.1-1.3,0,0,0,0,0-.1.1,0,.2,0,.5-.2,0,0,.2,0,.3,0,0,0,.1,0,.2,0,.2,0,.4-.2.5-.2,0,0,.1,0,.2,0,.2,0,.4-.2.4-.2.2,0,.3-.1.5-.2,0,0,0,0,.2-.1.1,0,.3-.1.4-.2,0,0,.1-.1.2-.1,0,0,0,0,.2,0,0,0,.2,0,.3-.1.2-.2.3-.3.5-.5.2-.3.4-.6.7-.9,0-.2.2-.4.3-.8,0-.2,0-.4-.3-.8-.3-.3-.7-.3-.9-.3-1.3.2-1.6.6-2.2.9-.5.3-1,.7-1.6,1.4-.6.6-1.2,1.4-1.4,2.3,0,.4-.3,1.2,0,1.8,0,0,0,.2,0,.2.1.2.3.4.5.6h0c.3.2.8.4,1,.4,0,0,0,0,0,0,.2,0,.3,0,.5,0,0,0,0,0,0,0,.7,0,1.2-.1,1.7-.3,0,0,.1,0,.2,0,1-.3.9-.6,1.7-1h0c.4-.6.8-.8,1.2-1.2,0,0,0,0,0,0,0,0,.2-.1.3-.3,0,0,.1-.2.2-.3h0c0,0,.2-.2.2-.3,0,0,0-.2,0-.2.1-.3.2-.3.2-.3,0,.1,0,.3,0,.6,0,.3,0,.4,0,.7,0,0,0,.5,0,.6,0,0,0,.2,0,.2,0,0,0,.2.1.2,0,0,0,0,.1.1,0,0,0,0,0,0,0,0,.1,0,.2.1,0,0,.1,0,.2,0,0,0,.2,0,.2,0,0,0,.1,0,.2,0,0,0,0,0,0,0h0s0,0,.2,0c0,0,0,0,.1,0s.1,0,.1-.1c0,0,0,0,0,0,0,0,0,0,.1-.1,0,0,0,0,.1-.1,0,0,.2-.3.2-.3,0-.2.5-.4.5-.6,0-.1.9-1.2,1-1.3.2-.2.3-.3.4-.5.3-.3.2-.2.4-.5,0,0,.1-.3.2-.4,0,0,0,.1,0,0-.2.6-.2.7-.2,1.4,0,0,0,.4,0,.6,0,0,0,.4,0,.4,0,.3,0,.2.2.9.1.6.3,1.1.9,1.7.1.1.3.3.6.3.2,0,.3,0,.3,0s0,0,0,0c0,0,0,0,.1,0,0,0,0,0,0,0,0,0,0,0,0,0h0c0-.1,0,0,0,0,0,0,0-.1,0-.1h0ZM57.9,77.4c.3-.3.9-.9.9-.9.3-.3.2-.3.8-.6,0,0,.1,0,.2-.1,0,0,.1,0,.2,0,0,0,0,0,.2,0,.1,0,0,0,.3-.2.2,0,.5-.3.7-.2,0,0,.2.2,0,.5-.1.2-.3.5-.5.7l-.4.4c-.1.1-.4.2-.7.4-.2.1-.5.2-.7.3-.3.1-.4.2-.6.2,0,0-.4.2-.5.2,0-.2-.3-.2,0-.5Z"/>
              <g>
                <path class="st0" d="M75.4,80.6c.3-.1,1.7-1.3,2-1.6,0,0,0,0,.2-.1,0,0,0-.2,0-.2l.3-.3s0,0,0-.1h0c0-.2,0-.2.2-.2,0,0,0,.2,0,.3s0,.2,0,.2c0,.1,0,.3,0,.3,0,0,0,.7,0,.8,0,0,.1.3,0,.3,0,0,0,.4,0,.4,0,0,.2.4.2.5,0,.1.2.3.2.4,0,0,.1.1.2.2,0,0,.1,0,.2,0,0,0,.2,0,.3,0,0,0,0,0,.2-.1,0,0,0-.1,0-.2,0,0-.2-.5-.2-.6,0,0-.1-.2-.2-.3,0,0,0-.2,0-.2,0,0,0-.2,0-.3,0-.1,0-.3,0-.4,0,0,0-.3,0-.6v-.2c0-.4,0-1.2.2-1.6,0,0,0-.2,0-.3,0,0,0,0,0,0,0-.2,0,0,0-.2,0-.1,0,0,.1-.4,0,0,.1-.3.1-.3t0-.2c0-.2-.7-.3-.9,0,0,0,0,0,0,0,0,0-.1.1-.2.2,0,.1,0,.1,0,.2,0,0,0,.1,0,.2-.2.2,0,.2,0,.3,0,.2-.2.3-.3.5,0,0,0,0,0,0l-.3.4c0,0-.5.5-.6.6,0,0-.3.3-.3.3,0,0-.3.3-.4.3l-.7.6c-.3.2-.3.2-.6.4l-.3.2c-.3.3-.8.4-1.1.4-.2,0-.4,0-.5-.3,0,0-.2-.3-.2-.3,0-.2,0,0,0-.2-.2-.2.4-1.7.7-2,0-.2.3-.4.4-.5h0c0-.2,1-1,1.2-1.1h0c.2-.1.2,0,.3-.2,0,0,0-.2.2-.2h0c0,0,.3-.2.4-.3h0c.1,0,.2-.2.3-.2,0,0,0,0,.1,0h0c.1,0,0,.2,0,.2,0,.1,0,.3,0,.3,0,0,0,.1.1.2,0,0,.2.2.3.1,0,0,.1,0,.2,0,0,0,.2,0,.2,0,0,0,.2-.4.2-.4,0-.1,0-.2,0-.2,0,0,0,0,0-.2,0-.2,0,0,0-.3,0-.2-.3-.6-.4-.7-.2-.1-.4-.1-.5-.1h-.2c-.3,0-.5,0-.7.2-.4.1-.7.3-1,.5,0,0-.3.2-.5.4,0,0,0,0,0,0,0,0-.8.8-.8.8h0c-.2.2,0,0-.2.2,0,0-.2.3-.3.4,0,0,0,0,0,.1,0,0,0,0,0,0h0c0,.1,0,.2,0,.1-.3.2-1.2,2-1,2.6,0,.1,0,.3,0,.4h0c.2.7,0,.3.3.8.2.2.3.3.5.4,0,0,0,0,0,0,0,0,.2,0,.2.1,0,0,.3.2.2,0,0,0,.2.1,0,0,0,0,.1,0,.2,0,0,0,.2,0,.4,0,0,0,0,0,.1,0,0,0,.2,0,.3,0h.3c.7-.2,1.4-.7,1.4-.7h0Z"/>
                <path class="st0" d="M80.8,74.6c0-.2.1-.2,0-.4,0-.2-.3-.2-.2-.4,0,0-.1-.1-.2-.2,0,0-.2,0-.2,0-.1,0-.2,0-.3,0-.3,0-.7,0-.8.3,0,0,0,0,0,.1,0,0,0,0,0,.2,0,0,0,0,0,.2.1,0,0,.3.3.4,0,0,0,0,0,0,0,0,0,0,.2,0,.2.3.7,0,1,0,0,0,.1-.2.2-.2h0Z"/>
              </g>
              <path class="st0" d="M55.1,74.8c.1.1.6-.3.7-.3.2-.4.2-.2.5-1,0-.1,0-.2,0-.4,0,0,0-.2-.3-.2,0-.2-.3,0-.4,0,0,0-.2,0-.3,0-.2,0-.3.2-.5.3,0,0,0,0,0,0h0s0,0,0,0c0,.1-.2.3-.3.4,0,0,0,0-.1.1,0,0,0,.1-.1.2,0,0-.1.2-.2.3,0,.1-.2.3-.2.3,0,0,0,.1,0,.2,0,0-.1.1-.2.2,0,0,0,0,0,0,0,0,0,0,0,0-.1.3-.2.6-.3.9,0,0,0,.1,0,.2,0,0,0,.2,0,.2,0,0,0,.2,0,.3h0c-.2.2-.4.5-.5.6-.7.5-1.4,1.1-2.1,1.6-.4.2-.7.4-1.1.6-.2.1-.4.2-.7.3h0s0,0-.1,0c0,0-.1,0-.2,0,0,0-.1,0-.2,0-.8.2-2,.7-3,.6-.1,0-.3,0-.4-.2,0,0,0,0,0,0-.1,0-.2-.2-.3-.4,0-.4.3-1.1.5-1.2.3,0,.5-.2.8-.2.3-.1.6-.2.9-.3,0,0,0,0,.1,0,.5-.2,1-.4,1.4-.5,0,0,1.3-.6,1.4-.7.6-.2,1.1-.6,1.6-.8,0,0,0,0,0,0-.2.2.2,0,.5-.3.2-.2.4-.4.4-.6,0-.1,0-.2,0-.3,0,0,0-.2-.1-.3-.3-.2-.5-.5-.8-.6-.1,0-.3-.1-.5-.1s-.2,0-.3,0c-1.3,0-2.1.4-3,.9,0,0,0,0,0,.1-.2,0-.5.2-.7.4-.5.3-.9.6-1.3.9-.5.5-1,1-1.4,1.6,0,0-.2.1-.3.2,0,0,0,0,0,0-.2,0-.7.2-1,.2-.1.2-.5,0-.6.2-.2,0-1.6.4-1.7.4-.1,0-2.6.6-2.7.6-.1,0-1.5.3-1.5.3-.3,0-1,.2-1,.2,0,0-1.6.2-2.3.4,0-.1-.2,0-.3,0,0,0-.8,0-.7,0,0,0,0,0-.2,0,0,0,0,0,0,0,0,0-.2,0-.2,0,0,0,0,0,0,0-1.4.1-3.2.2-4.2-.6,0,0,0,0,0,0,0,0,0,0-.1,0-.2.3,0,.4.1.6,0,0,0,0,0,0,0,.2.2.2.1.3.8.5,1.8.8,2.8.8,0,0,0,0,0,0,.3,0,.8,0,.8,0,.2,0,.6,0,.9,0,0,0,.5,0,.7,0,0,0,0,0,0,0,.2,0,.8-.1.8,0,0,0,.8,0,.6,0,.1,0,.2,0,.3,0,0,0,.7-.2.6,0,0,0,.2,0,.2,0,0,0,1.3-.2,1.3-.1,0-.1.3-.1.2,0,.1,0,.9-.1.9-.2.1,0,.9-.1,1-.1,0,0,.8-.3.8-.3.3-.1,1.2-.3,1.3-.3h.5c0,0,1.1-.4,1.1-.3,0,0,.2,0,.2,0,0,0,.8-.3.8-.2,0,0,.1,0,.2,0,0,.2,0,.6.1.8,0,0,0,0,0,0,.2.4.4.9.8,1.2.7.4,1.7.3,2.5.2.7-.2,1.4-.4,2-.7h0c.3-.1.6-.3.9-.4.4-.3.8-.5,1.2-.7.4-.4,1.3-1,1.7-1.4,0,0,.2-.2.3-.2h0c0,.3,0,.6.1.7,0,0,0,.2,0,.2,0,0,0,0,0,0,0,.4.3.8.4,1.2,0,0,0,0,0,0,0,0,0,0,0,.1,0,0,.1.2.1.3,0,0,0,.1,0,.2,0,.2.2.3.2.5,0,.2.1.5.2.8,0,0,0,.1,0,.2,0,.1,0,.3,0,.4,0,0,0,0,0,0,0,.1-.1.3-.2.3,0,0,0,0,0,0,0,.2-.3.5-.5.6-.1.1-.3.2-.4.4-.3.2-.5.3-.8.5-.1,0-.3.1-.4.2-.1,0-.3,0-.4,0,0,0,0,0-.1,0-.1,0-.3,0-.4,0,0,0-.2,0-.3,0h0c-.1,0,0,0-.2,0,0,.2,0,.1,0,.3,0,0,0,0,.1,0,0,.1.2,0,.1.2.2,0,.2,0,.4,0,0,0,0,0,0,.1,0,0,.2,0,.3,0,0,0,0,0,0,0,0,0-.2,0-.3,0,0,0,.2,0,.5,0,0,0,.1,0,.2,0,0,0,.1,0,.2,0,.2,0,.3-.1.5-.1,0,0,0,0,0,0,0,0,0,0,.2,0,0,0,.2-.1.2,0,0,0,.2,0,.4,0,.2,0,.4-.2.5-.3.1,0,.2,0,.2-.2,0,0,0,0,.1,0,.3-.2.5-.4.7-.7,0-.2.1-.3.2-.4,0,0,0,0,0-.1,0,0,0-.1,0-.2,0,0,0,0,0,0,0,0,0,0,0,0,0-.2.2-.6.2-.8,0-.3,0-.6,0-.8,0,0,0,0,0,0,0,0,0,0,0,0,0-.2-.1-.4-.2-.6,0-.1,0-.2-.1-.3,0,0,0-.2,0-.3,0,0-.1-.1-.1-.2,0,0,0,0,0,0,0-.2-.2-.3-.2-.4,0-.1,0-.2,0-.3-.1-.3-.2-.6-.2-.8,0-.2-.1-.4-.2-.7,0-.2,0-.5,0-.7,0-.2,0-.6.1-.8.2-.6.4-1.1.7-1.6,0,0,0,0,.1-.2,0,0,0-.2.1-.3.2-.3,0,0,.2,0h0ZM46,77.3c.3-.3,1.4-1.1,1.4-1.1l.2-.2c0,0,.4-.1.5-.2.3-.2.7-.4,1.1-.4.2-.1.4-.2.5-.2.3-.2.6,0,.9,0-.8.7-1.8,1.2-2.8,1.7-.1,0-1.1.5-1.5.6-.3,0-.5,0-.3-.2Z"/>
              <path class="st1" d="M105.9,81s0,0,0,0c0,0,0,0-.1,0,0,0,0,0,0-.1,0,0,0,0-.1,0,0,0,0,0,.1,0,0,0,0,0,0,0,0,0-.2.1-.3,0,0,0,0,0,0,0-.1,0-.3,0-.4.1,0,0-.2,0-.3,0,0,0,0,0,.1,0,0,0,0,0,0,0,0,0,0,0,.1,0,0,0-.2,0-.3,0,0,0,0,0,0,0-.1,0-.1,0-.2,0,0,0,0,0,0,0,0,0,0,0,0,0-.2,0-.3,0-.4.2,0,0,0,0,0,0,0,0-.2,0-.3.1,0,0,0,0,0,0-.6.2-1.3.2-1.8.4-.2,0-.4,0-.6,0-.4,0-.8,0-1.1.1,0,0-.1,0-.2,0-.2,0-.3,0-.6,0-.4,0-.8,0-1.2,0-.2,0-.5,0-.7,0-.2,0-.4,0-.6,0,0,0-.1,0-.2,0,0,0-.1,0-.2,0-.2,0-.5-.1-.7-.2-.2-.1-.4,0-.6-.2-.3,0-.5-.1-.7-.3-.5-.2-.9-.4-1.2-.8,0,0,0,0,0,0,0,0,0-.2-.2-.2,0,0,0,0,0-.1-.2,0-.3-.3-.4-.4-.2-.3-.5-.6-.7-1,0,0,0,0,0,0-.2-.4-.4-.7-.5-1.2,0,0,0,0,0,0,0-.2-.2-.3-.2-.5,0,0,0,0,0,0,0-.2-.1-.2-.1-.5,0,0,0-.1,0-.2,0,0,0,0,0,0,0,0,0-.2.1-.2,0,0,.2-.2.1-.3.2,0,0-.3.2-.3,0,0,0,0,0,0,0,0,0,0,0,0,0-.2.2-.3.2-.4.2,0,0-.4.3-.4,0,0,0-.2,0-.3,0,0,0,0,0-.1,0,0,0,0,0,0,0-.2.3-.6.3-.8,0,0,.2-.4.2-.4.2-.3.1-.5.2-.6,0,0,0,0,0-.1,0,0,0-.1,0-.2v-.2c0,0,0-.2,0-.2v-.5c.1,0,.1,0,.1,0,0,0,0-.1,0-.2h0s0,0,0,0v-.4c0-.4.2-.4.2-.8,0,0,0-.3,0-.4,0-.1,0-.5,0-.7,0-.2,0-.3,0-.3,0-.3,0,0-.2-.3,0,0,0-.1,0-.2,0,0,0,0,0-.1,0,0,0,0,0-.2,0-.2-.1-.2-.2-.3,0,0-.2-.2-.2-.3-.2-.1-.2,0-.3-.2h0c-.3-.1-.5-.2-.8-.1,0,0,0,0-.1.1,0,0,0,0,0,0-.2,0-.3.2-.4.2-.3.3-.4.7-.6,1.1,0,0,0,0,0,.2-.1.1,0,.4-.2.5,0,0,0,0,0,0,0,.2-.2.5-.2.7,0,.3-.1.6-.1.8s0,.5,0,.7c0,.2,0,.2,0,.4,0,0,0,.2,0,.2,0,.4,0,.9,0,1.4,0,0,0,0,0,0,0,.3,0,.6,0,.9,0,.1,0,.3,0,.4s0,.3,0,.4c0,0,0,0,0,0,0,.5.1,1,.2,1.5-.2.2-.2.5-.4.6,0,.2-.2.3-.3.5-.2,0-.2.3-.3.4h0c-.2.2-.8.9-.9.8,0,0-.3.2-.6-.2,0,0-.3-.7-.4-.9,0-.4,0-.8,0-1.2,0-.1,0-.2,0-.3,0-.3,0-.3.1-.8,0,0,0-.1,0-.2v-.2s0-.4,0-.4h-.2c0,0-.2,0-.3,0-.1,0,0,0-.2,0h-.3s0,0-.3,0l-.2.2h-.4c0,0-.7.3-.7.3l-1.1.7-.6.4c-.2.2-.5.4-.5.4l-.4.4c.1-.1-.4.5-.7.8-.1.3-.9,1.7-.7,1.8-.2.9-.3,1,.6,1.8.6.6,1.5.1,1.9,0,.1,0,.2-.2.3-.2.8-.3,1-.6,1.7-1.4h0c0,0,.2-.3.2-.3.4-.4.3-.7.8-1.2,0,0,0,0,0,0h0c0,.2.2.5.2.7.1.3.7,1,.8,1.1.4.3.9.1,1.1,0,.4-.2,1-1,1-1h0c0,0,0-.1,0-.2.3-.2.5-.7.6-.7,0,0,.1-.2.2-.2,0,0,0-.2.2-.2,0,0,0,0,.1,0,.1.2.2.4.3.7.4.6.7,1.2,1.1,1.7.1.3.3.3.4.6.1,0,.1.1.2.2,0,.2.3.2.4.4,0,0,0,0,0,0,0,0,0,0,.1,0,0,0,0,0,0,0,0,0,.1,0,.2,0,.4.4.9.7,1.5.9,0,0,0,0,0,0,.3.1.6.3.9.4,0,0-.1,0,0,0,0,0,.2,0,.2,0,0,0,0,0,0,0,.4,0,.7.2,1.2.2,0,0,.2,0,.1.1,0,0,.3,0,.3,0,0,0,.1,0,.3,0,0,0,.1,0,.2.1,0,0,0,0,0,0,.2,0,.4,0,.5,0,0,0-.2,0-.3,0,0,0,.2,0,.3,0,0,0,0,0,0-.1,0,0,0,0,0,0,0,0,0,0,0,0,0,0,0,0-.1,0,0,0,.3,0,.5,0,0,0,0,0,0,0,.1,0,.3,0,.3,0,0,0,.2,0,.2,0,.1,0,.3,0,.5,0,0,0,0,0,0,0,0,0,.3,0,.4,0,.2,0,.5,0,.7,0,0,0,0,0,0-.1,0,0,0,0,0,0,0,0,0,0,0,0,0,0-.2,0-.3,0,0,0,0,0,0,0-.2,0-.3,0-.4.1,0-.2,0,0-.1-.1h0c0-.1-.1,0-.1,0,0,0,0,0,0,0,0,0,0,0,0-.1,0,0,.2,0,.3,0,0,0,0-.1,0-.2,0,.1.2,0,.3,0,0,.1-.2,0-.2.1,0,0,0,0,0,0,0,0,.1,0,.1,0,0,0-.1,0-.1,0,0,0,.1-.1.2,0,0,0,0-.1,0-.1,0,0,.3,0,.4,0,0,0,0,0,0,0,0,0,0,.1-.1,0,0,0,0,0,.1,0,0-.1,0-.2.1-.2,0,0,0,0,0,0,0,0,0,0,0,0,0,0,.1,0,.2,0,0,0,0,0,0,0,0,0,0,0,0,0h0s0,0,0,0c0,0,0,0,0,0,0,0,.2,0,.3,0,0,0,0,0,0,0,0,0,.1,0,.2,0,0,0-.1,0,0,0h0c0,0,.2-.1.3,0,0,0,0,0,0,0,0,0,0,0,0,0h0c0,0,0,0,0,0,.3,0,.7,0,1.2-.2,0,0,0,0,0,0,0,0,0,0,0,0,0,0,0,0,0,0,0,0,0,0,.2,0,0,0,0,0,0,0,0,0,0,0,0-.1,0,0,0,0,0,0h0s0,0,0,0c0,0,0,0,0,0,0,0,0,0,0,0h0c0,0,0,.2,0,.2,0,0,0,0,.1,0,0,0,0,0,0,0,.2,0,.4-.2.6-.3h0c.1,0,.2,0,.2,0,0,0,.2,0,.2,0,0,0,0-.1,0-.1,0,0,0,0,0,0,0,0,0,0,.2,0,0,0,0,0,0-.2-.1,0,0,.1,0,.1,0,0,0,0-.2,0,0,0,0,0,0,0,0,0,0,0,0,0,0,0,0,0,0-.1,0,0,0,0,0,0,0,0-.2,0-.2.1,0,0,0,0,0,0h0s0,0,0,0h0s0,0,0,0c0,0,0,0,0,0,0,0,0,0,0,0,0,0,0,0,0,0h0s0,0,0,0c0,0,0,0,0,0h0c0,0-.1,0,0,0,0,0,0,0,0,0,0,0,0,0,0,0,0,0,0,0,0,0,0,0,0,0,0,0,0,.1-.2,0-.3,0,0,0,0,.1,0,0,0,0,0,0,0,0,0,0,.3,0,.3-.1,0,0,0,0,0,0,0,0,.2-.1.3,0,0,0,.2,0,.2-.1,0,0,0,0,.1,0,0,0,0,0,0,0,0,0,0-.1.1-.1,0,0,0,0,0,0,0,0,0,0,0-.1,0,0,0,0,.1,0,0,0,0-.1,0-.1,0,0,0,0,0,.1.2,0,.3-.2.4-.2,0,0,0,0,0-.1,0,0,0,0,0,0,0,0,.1,0,.2,0,0,0,0-.1,0-.1h.1ZM85.4,76.8c-.2.4-.2.8-.5,1v.2c0,.3-.3.4-.5.7h0c0,.2-.3.5-.4.6-.3.2-.6.7-1.1,1-.5,0-.3.2-.9.2-.4-.2-.4-.8-.2-1,.3-.8.4-1.1.7-1.3.4-.7,1.4-1.2,1.6-1.5.4-.4.9-.6,1.3-.7v1.1c0,0,0,0,0,0ZM91,74.6c-.1-1.1,0-1.9,0-2.8,0,0,0,0,0,0,0-.7,0-1.2.1-1.9.2-.2,0-.7.2-.8,0-.1.1-.3,0-.3,0-.3.1-.5.3-.8,0,0,0,0,0,0,.1-.2.4-.4.6-.5,0,0,0,.3,0,.2.1.1.1.3.3.4v.2c.1.1,0,.5.2.5,0,0,0,.3,0,.3,0,.6,0,.4,0,1,0,0,0,0,0,.3,0,0,0,.2,0,.2,0,0,0,.1,0,.1,0,0,0,.2,0,.2,0,0,0,0,0,0,0,0,0,0,0,0,0,0,0,0,0,0,0,0,0,0,0,0,0,0,0,.1,0,.2,0,0,0,0,0,0,0,0,0,0-.1,0,0,0,0,.2,0,.2,0,0,0,.2,0,.2,0,0,0,0,0,0,0,0,0,.3-.2.3,0,0,0,.2.1.2,0,0,0,0-.1,0,0,.2-.2.4-.2.6,0,0,0,0,0,0,0,0,0,0-.1.1,0,0,0,.2,0,.3,0,0,0,.2-.1.2,0,.2-.2.3-.2.5,0,0,0,0,0,.2-.2,0-.1.3-.3.4h0ZM99.8,82.9s0,0,0,0h0s0,0,0,0h0ZM99.9,82.9s0,0,0,0c0,0,0,0,0,0ZM99.9,82.8c0,0,0-.1.2-.1,0,0,0,0,0,0,0,0,0,0,0,0,0,0-.1,0-.3.1ZM101.1,82.5c0,0,0,0,.1,0,0,0-.1,0-.1,0ZM101.5,82.6s0,0,0,0c0,0,0,0,0,0ZM101.6,82.6s0,0,0,0c0,0,0,0,0,0ZM101.7,82.4c0,0,0,0,0,0,0,0,0,0,0,0ZM102,82.4c0,0,0,0,0,0,0,0,0,0,0,0ZM102.1,82.3s.1,0,.2,0c0,0-.1,0-.2,0ZM102.3,82.3c0,0,.2-.1.2,0,0,0-.1,0-.2,0ZM102.5,82.1c0,0,.1,0,.1,0,0,0-.1,0-.1,0ZM102.8,82.4c0,0-.1,0-.2,0,0-.1.2,0,.3-.2,0,0,0,0,0,0,0,0,0,0,0,0h0ZM103,82c0,0,0,0,0,0,0,0,0,0,0,0,0,0,0,0,0,0ZM103,82.2s0,0,0,0h0s0,0,0,0h0ZM103.2,82h0c0,0,0,0,0,0,0,0,0,0,.1,0,0,0,0,0,0,0h0ZM103.5,82.2s0,0,0,0c0,0,0,0,0,0,0,0,0,0,0,0h0ZM103.5,82.1s0,0,0,0c0,0,0,0,0,0,0,0,0,0,0,0ZM103.5,82c0,0,.1-.1.2,0,0,0-.1,0-.2,0ZM104,81.9h0s0,0,0,0h0s0,0,0,0ZM103.8,81.9h0c0,0,0,0,0,0Z"/>
            </g>
          </g>
          <g>
            <path class="st1" d="M99.1,72.5c-.4,0-.7,0-1.1-.2s-.6-.3-.8-.6-.4-.6-.6-.9c-.1-.3-.2-.7-.2-1.1s0-.7.2-1.1c.1-.3.3-.6.6-.9.2-.2.5-.5.9-.6.3-.1.7-.2,1-.2s.8,0,1.1.2c.3.1.6.3.8.6s.4.5.6.9c.1.3.2.7.2,1.1s0,.7-.2,1.1c-.1.3-.3.6-.6.9-.2.2-.5.4-.9.6-.3.1-.7.2-1,.2h0ZM99.2,67.3c-.3,0-.6,0-.9.2-.3.1-.5.3-.8.5s-.4.5-.5.8c-.1.3-.2.6-.2.9s0,.7.2.9c.1.3.3.6.5.8.2.2.5.4.7.5.3.1.6.2.9.2h0c.3,0,.7,0,.9-.2.3-.1.5-.3.8-.5.2-.2.4-.5.5-.8s.2-.6.2-.9,0-.7-.2-1c-.1-.3-.3-.5-.5-.8s-.5-.4-.7-.5-.6-.2-.9-.2h0s0,0,0,0h0ZM100,71.1l-.8-1.1h-.6v1.1h-.5v-2.9h1.3c.2,0,.3,0,.5,0,.2,0,.3.1.3.2,0,0,.1.2.2.2,0,0,0,.2,0,.3,0,.2,0,.4-.2.6-.1.1-.3.2-.5.3l.8,1.2h-.6ZM99.3,69.6c.2,0,.3,0,.4-.1.1,0,.2-.2.2-.3s0-.3-.2-.3c0,0-.2-.1-.4-.1h-.8v.9h.8,0Z"/>
            <path class="st1" d="M99.2,67h0c.4,0,.7,0,1,.2.3.2.6.3.8.6s.4.5.6.9c.1.3.2.7.2,1.1h0c0,.4,0,.7-.2,1.1s-.3.6-.6.9c-.2.2-.5.4-.9.6-.3.1-.7.2-1,.2h0c-.4,0-.7,0-1-.2-.3-.2-.6-.3-.8-.6-.2-.2-.4-.5-.6-.9-.1-.3-.2-.7-.2-1h0c0-.4,0-.8.2-1.1.1-.3.3-.6.6-.9.2-.2.5-.4.8-.6.3-.1.7-.2,1-.2M99.2,72.2c.3,0,.6,0,.9-.2.3-.1.6-.3.8-.5.2-.2.4-.5.5-.8.1-.3.2-.6.2-1h0c0-.4,0-.7-.2-1-.1-.3-.3-.6-.5-.8-.2-.2-.5-.4-.8-.5-.3-.1-.6-.2-.9-.2h0c-.3,0-.6,0-.9.2-.3.1-.5.3-.8.5s-.4.5-.5.8c-.1.3-.2.6-.2,1h0c0,.3,0,.7.2,1,.1.3.3.6.5.8s.5.4.8.5.6.2.9.2h0M98.1,68.2h1.2c.2,0,.3,0,.5,0,.1,0,.2.1.3.2,0,0,.1.1.2.2s0,.2,0,.3h0c0,.2,0,.4-.2.6-.1.1-.3.2-.5.3l.8,1.1h-.5l-.8-1.1h-.7v1.1h-.4v-2.8M99.3,69.6c.2,0,.3,0,.4-.1.1,0,.2-.2.2-.4h0c0-.2,0-.3-.2-.4s-.3-.1-.5-.1h-.8v1h.8M99.2,66.9c-.4,0-.7,0-1.1.2-.3.2-.6.3-.9.6-.2.2-.4.5-.6.9-.1.3-.2.7-.2,1.1s0,.8.2,1.1.3.6.6.9c.2.2.5.4.9.6s.7.2,1.1.2h0c.4,0,.7,0,1.1-.2s.6-.3.9-.6c.2-.2.4-.6.6-.9.1-.3.2-.7.2-1.1s0-.8-.2-1.1c-.1-.3-.3-.6-.6-.9s-.5-.5-.9-.6c-.3-.2-.7-.2-1.1-.2h0ZM99.2,72.1h0c-.3,0-.6,0-.9-.2-.3-.1-.5-.3-.7-.5-.2-.2-.4-.5-.5-.8-.1-.3-.2-.6-.2-.9s0-.7.2-.9c.1-.3.3-.5.5-.8.2-.2.5-.4.7-.5.3-.1.6-.2.9-.2h0c.3,0,.6,0,.9.2.3.1.5.3.7.5.2.2.4.5.5.8.1.3.2.6.2.9s0,.7-.2.9-.3.5-.5.8c-.2.2-.5.4-.8.5-.3.1-.6.2-.9.2h0ZM98.1,68.1h0c0,0,0,2.9,0,2.9h0c0,0,0,0,0,0h.5c0,0,0-1.1,0-1.1h.6l.8,1.1h0s.5,0,.5,0h.1,0c0,0-.8-1.2-.8-1.2.2,0,.3-.1.4-.3.2-.1.2-.3.2-.6s0-.2,0-.3,0-.2-.2-.2c0,0-.2-.2-.4-.2s-.3,0-.5,0h-1.3s0,0,0,0ZM98.6,69.5v-.9h.8c.2,0,.3,0,.4.1,0,0,.1.2.1.3s0,.2-.2.3-.2.1-.4.1h0c0,0,0,0,0,0h-.7,0Z"/>
          </g>
        </g>
        <g>
          <path class="st1" d="M38.2,67.5l.8-1c.7.6,1.4,1,2.4,1s1.3-.4,1.3-1h0c0-.6-.3-.9-1.7-1.2-1.6-.4-2.5-.9-2.5-2.3h0c0-1.3,1.1-2.2,2.5-2.2s2,.3,2.7,1l-.7,1c-.7-.5-1.3-.8-2-.8s-1.2.4-1.2.9h0c0,.6.3.9,1.8,1.2,1.6.4,2.4,1,2.4,2.2h0c0,1.5-1.1,2.3-2.7,2.3s-2.2-.4-3.1-1.2h0Z"/>
          <path class="st1" d="M44.6,65.7h0c0-1.7,1.3-3,3-3s3,1.3,3,3h0c0,1.7-1.3,3-3,3s-3-1.3-3-3h0ZM49.3,65.7h0c0-1-.7-1.9-1.7-1.9s-1.7.8-1.7,1.8h0c0,1,.7,1.9,1.7,1.9s1.7-.8,1.7-1.8h0Z"/>
          <path class="st1" d="M51.4,62.8h1.3v.9c.4-.5.9-1,1.7-1s1.4.4,1.7,1c.4-.6,1.1-1,1.9-1,1.2,0,2,.8,2,2.2v3.7h-1.3v-3.3c0-.9-.4-1.4-1.1-1.4s-1.2.5-1.2,1.4v3.3h-1.3v-3.3c0-.9-.4-1.4-1.1-1.4s-1.2.5-1.2,1.4v3.3h-1.3v-5.8h0Z"/>
          <path class="st1" d="M60.7,65.7h0c0-1.7,1.3-3,3-3s3,1.3,3,3h0c0,1.7-1.3,3-3,3s-3-1.3-3-3h0ZM65.4,65.7h0c0-1-.7-1.9-1.7-1.9s-1.7.8-1.7,1.8h0c0,1,.7,1.9,1.7,1.9s1.7-.8,1.7-1.8h0Z"/>
          <path class="st1" d="M67,67.9l.6-.9c.6.5,1.3.7,1.8.7s.9-.2.9-.6h0c0-.5-.6-.6-1.3-.8-.8-.2-1.8-.6-1.8-1.7h0c0-1.1.9-1.8,2-1.8s1.5.2,2.1.7l-.5.9c-.6-.3-1.1-.5-1.6-.5s-.8.2-.8.6h0c0,.5.6.6,1.3.8.8.3,1.8.7,1.8,1.7h0c0,1.2-.9,1.8-2.1,1.8s-1.7-.3-2.4-.9h0Z"/>
        </g>
      </g>
      <path class="st1" d="M74.4,126.2c-9.5,0-18.7-3.4-26.1-9.5-7.2-6-12.3-14.5-14.3-23.8,0-.4.2-.7.5-.8.4,0,.7.2.8.5,1.9,9,6.9,17.2,13.9,23,7.1,5.9,16.1,9.2,25.2,9.2,22.1,0,40-18.4,40-41.1s-18-41.1-40-41.1-20.4,4.1-27.9,11.6c-.3.3-.7.2-.9,0-.2-.3-.2-.7,0-1,7.8-7.8,18-12,28.8-12,22.8,0,41.3,19,41.3,42.4s-18.6,42.4-41.3,42.4h0Z"/>
    </g>
  </g>
</svg>